<svg
   viewBox="0 0 179.3406 178.01528"
   version="1.1"
   id="svg5"
   xmlSpace="preserve"
   xmlns="http://www.w3.org/2000/svg"
   xmlnsSvg="http://www.w3.org/2000/svg"><defs
     id="defs2" /><path
     display="inline" fill="#b3b3b3" fill-opacity="0.988235" stroke="#000000" stroke-width="0.529167" stroke-dasharray="none"
     d="M 45.125893,0.26495509 179.07175,0.52106609 176.25454,176.21296 43.58923,177.74962 0.30653429,142.91858 Z"
     id="path233" /><g
     id="layer2"
     display="inline"
     transform="translate(-13.77955,-37.383306)"><text
       xmlSpace="preserve"
       font-size="15.0814px" display="inline" fill="#000000" fill-opacity="0.988235" stroke="none" stroke-width="0.132292" stroke-dasharray="none"
       x="133.51901"
       y="90.723076"
       id="text1402"
       transform="matrix(0.88421033,0,0,1.1309526,-1.2402335,23.705032)"><tspan
         id="tspan1400"
         fill="#000000" fill-opacity="0.988235" stroke="none" stroke-width="0.132292" stroke-dasharray="none"
         x="133.51901"
         y="90.723076">Plaza</tspan></text><text
       xmlSpace="preserve"
       font-size="5.88184px" display="inline" fill="#000000" fill-opacity="0.988235" stroke="none" stroke-width="0.132292" stroke-dasharray="none"
       x="86.846443"
       y="46.02626"
       id="text1402-3"
       transform="matrix(0.73490538,0,0,1.3607194,-1.2402335,23.705032)"><tspan
         id="tspan1400-9"
         fill="#000000" fill-opacity="0.988235" stroke="none" stroke-width="0.132292" stroke-dasharray="none"
         x="86.846443"
         y="46.02626">Area gourmet</tspan></text><text
       xmlSpace="preserve"
       font-size="12.2075px" display="inline" fill="#000000" fill-opacity="0.988235" stroke="none" stroke-width="0.132292" stroke-dasharray="none"
       x="41.73193"
       y="147.32561"
       id="text1402-1"
       transform="matrix(0.96564916,0,0,1.0355728,-1.2402335,23.705032)"><tspan
         id="tspan1400-5"
         fill="#000000" fill-opacity="0.988235" stroke="none" stroke-width="0.132292" stroke-dasharray="none"
         x="41.73193"
         y="147.32561">Parque</tspan></text></g><g
     id="layer1"
     transform="translate(-15.019784,-13.678274)"
     display="inline"><path
       display="inline" opacity="0.7" fill="#008000" fill-opacity="0.988235" stroke="#000000" stroke-width="0.529167" stroke-dasharray="none"
       d="m 86.781183,106.14306 -0.918361,84.61615 -27.003029,0.41524 -21.626917,-17.29924 -6.539922,-28.80334 9.988314,-30.73327 9.476095,-7.42721 z"
       id="parque"
       name="town" /><path
       display="inline" opacity="0.7" fill="#800080" fill-opacity="0.988235" stroke="#000000" stroke-width="0.529167" stroke-dasharray="none"
       d="m 92.927837,178.36625 75.808743,0.76833 V 83.605321 h 14.3422 L 182.82267,62.092026 193.57931,61.835917 193.3232,14.711563 61.938451,14.455451 61.68234,36.737074 l 8.707763,10e-7 -0.256112,-3.841658 33.294379,0.384165 -0.38416,51.478236 -2.17694,-0.128057 -7.939433,16.647189 z"
       id="plaza"
       name="town" /><path
       display="inline" opacity="0.7" fill="#008080" fill-opacity="0.988235" stroke="#000000" stroke-width="0.529167" stroke-dasharray="none"
       d="m 61.298176,36.609019 h 9.348036 l -0.384165,-3.713602 32.654103,0.640276 v 21.001072 l -3.585547,0.256108 -0.256111,33.038272 -39.953258,-0.128057 -1.280553,-44.051027 3.617562,0.06403 z"
       id="areaGourmet"
       name="town" /></g></svg>
