<svg version="1.1" id="Layer_0" xmlns="http://www.w3.org/2000/svg" xmlnsXlink="http://www.w3.org/1999/xlink" x="0px" y="0px"
	 height="100%" viewBox="0 0 4410 3510" enable-background="new 0 0 4410 3510" xmlSpace="preserve">
<path id="BatizVirtual" class="lim" fill="#FEFEFE" opacity="0" stroke="none" 
	d="
M1230.000244,866.339233 
	C1251.665527,866.339355 1272.332764,866.492126 1292.994751,866.233948 
	C1298.257568,866.168213 1300.325928,867.871033 1299.704712,873.061279 
	C1299.468750,875.032898 1299.667847,877.056396 1299.667847,879.056274 
	C1299.667969,1089.708862 1299.682495,1300.361450 1299.636841,1511.014038 
	C1299.633667,1525.672363 1301.705078,1523.636719 1286.930908,1523.638306 
	C926.288330,1523.677124 565.645813,1523.677490 205.003235,1523.636963 
	C190.282822,1523.635376 192.373642,1525.715820 192.370346,1510.958862 
	C192.323273,1300.306274 192.323914,1089.653687 192.369110,879.001038 
	C192.372253,864.331055 190.311996,866.371338 205.069168,866.369629 
	C546.379517,866.330261 887.689819,866.339233 1230.000244,866.339233 
z"/>
<path id="LabElectDigital6" class="lim" fill="#FDFDFD" opacity="0" stroke="none" 
	d="
M925.743958,2873.657959 
	C684.791504,2873.657959 444.809113,2873.669678 204.826736,2873.628174 
	C190.366852,2873.625732 192.367844,2875.669434 192.364716,2860.759277 
	C192.320419,2650.108154 192.334412,2439.456787 192.334320,2228.805664 
	C192.334320,2226.805908 192.553238,2224.777100 192.293411,2222.811768 
	C191.558090,2217.250244 194.363419,2215.791504 199.269180,2216.298340 
	C201.247955,2216.502441 203.265381,2216.332764 205.265228,2216.332764 
	C445.580902,2216.332764 685.896606,2216.332764 926.212280,2216.332764 
	C939.670532,2216.332764 939.671448,2216.333252 939.671509,2230.265869 
	C939.671692,2438.917236 939.671753,2647.568604 939.671692,2856.219971 
	C939.671692,2857.886475 939.693176,2859.553467 939.667542,2861.219727 
	C939.444763,2875.697021 941.586792,2873.414551 925.743958,2873.657959 
z"/>
<path id="ProgSistemasDig" class="lim" fill="#FEFEFE" opacity="0" stroke="none" 
	d="
M747.787231,2198.327148 
	C566.157410,2198.326904 385.500031,2198.326904 204.842636,2198.326904 
	C202.842743,2198.326904 200.817017,2198.120605 198.847870,2198.366699 
	C193.491135,2199.035889 191.597855,2196.663330 192.301407,2191.541748 
	C192.526093,2189.906250 192.335800,2188.213379 192.335800,2186.546875 
	C192.335785,1975.557739 192.335648,1764.568604 192.336243,1553.579468 
	C192.336273,1541.672852 192.339050,1541.672852 204.717316,1541.672852 
	C385.708038,1541.672729 566.698730,1541.672729 747.689453,1541.672852 
	C759.665405,1541.672852 759.670166,1541.673340 759.670227,1553.982788 
	C759.671326,1764.971924 759.671082,1975.961060 759.671143,2186.950195 
	C759.671143,2187.283447 759.674744,2187.616943 759.670532,2187.950195 
	C759.523621,2199.466553 761.203369,2198.252197 747.787231,2198.327148 
z"/>
<path id="UsosMultiples" class="lim" fill="#FDFDFD" opacity="0" stroke="none" 
	d="
M401.999817,623.664368 
	C336.020782,623.664368 271.041748,623.664429 206.062698,623.664368 
	C204.729797,623.664368 203.396866,623.667358 202.063980,623.663635 
	C191.556061,623.634399 192.336487,624.560059 192.336334,614.011902 
	C192.334488,476.389648 192.335052,338.767365 192.335526,201.145096 
	C192.335526,199.478973 192.454315,197.803909 192.322449,196.148560 
	C192.034897,192.539169 193.971466,191.513260 197.155457,191.653793 
	C199.150803,191.741852 201.153381,191.663635 203.152725,191.663620 
	C415.084351,191.662827 627.015991,191.658936 838.947632,191.670502 
	C851.380188,191.671173 849.639282,190.708282 849.642151,202.233231 
	C849.676392,339.189056 849.664368,476.144897 849.664368,613.100708 
	C849.664368,614.433594 849.507019,615.788513 849.690430,617.095581 
	C850.448547,622.498840 847.905762,624.251953 842.852600,623.704651 
	C840.547119,623.454895 838.192017,623.664062 835.859436,623.664062 
	C691.572937,623.664246 547.286377,623.664307 401.999817,623.664368 
z"/>
<path id="LabApliSisDig" class="lim" fill="#FDFDFD" opacity="0" stroke="none" 
	d="
M916.000183,1541.672607 
	C1069.660034,1541.672607 1222.319946,1541.672607 1374.979736,1541.672607 
	C1376.646362,1541.672607 1378.312866,1541.670654 1379.979492,1541.672852 
	C1391.051758,1541.687500 1389.660278,1541.107056 1389.661743,1551.256958 
	C1389.680908,1688.917480 1389.674683,1826.577881 1389.674683,1964.238403 
	C1389.674683,1965.571655 1389.582397,1966.912231 1389.688110,1968.236938 
	C1389.979492,1971.886475 1388.753052,1973.992920 1384.688721,1973.685303 
	C1382.700317,1973.534790 1380.690796,1973.665649 1378.690918,1973.665649 
	C1182.033081,1973.666016 985.375244,1973.677856 788.717407,1973.638550 
	C776.313904,1973.635986 777.684937,1975.553711 777.682007,1962.420410 
	C777.651306,1825.759888 777.646912,1689.099365 777.690430,1552.438843 
	C777.694397,1539.963623 775.982483,1541.722900 788.005371,1541.701660 
	C830.336853,1541.626709 872.668518,1541.672607 916.000183,1541.672607 
z"/>
<path id="f" class="lim" fill="#FEFEFE" opacity="0" stroke="none" 
	d="
M4224.336426,1941.994385 
	C4224.333496,1951.656860 4224.264160,1960.321899 4224.361328,1968.984985 
	C4224.397949,1972.296631 4223.215820,1973.933228 4219.721680,1973.688232 
	C4217.400879,1973.525513 4215.058594,1973.664551 4212.726074,1973.664551 
	C4061.435303,1973.664917 3910.144531,1973.679688 3758.853760,1973.637939 
	C3746.434082,1973.634521 3747.684082,1975.571899 3747.681396,1962.556641 
	C3747.653809,1825.928345 3747.645020,1689.300049 3747.696045,1552.671753 
	C3747.700928,1539.810791 3745.866699,1541.709473 3758.786133,1541.705322 
	C3910.410400,1541.656006 4062.034424,1541.673218 4213.658691,1541.674194 
	C4224.322266,1541.674316 4224.333984,1541.678711 4224.334473,1552.105225 
	C4224.336914,1681.735474 4224.336426,1811.365723 4224.336426,1941.994385 
z"/>
<path id="g" class="lim" fill="#FDFDFD" opacity="0" stroke="none" 
	d="
M4092.000000,3323.672119 
	C3996.005371,3323.672119 3901.010498,3323.672363 3806.015869,3323.672363 
	C3804.349365,3323.672363 3802.682617,3323.659424 3801.016113,3323.673340 
	C3791.887695,3323.749023 3792.323730,3324.062012 3792.324707,3314.976562 
	C3792.339111,3176.650879 3792.339844,3038.325439 3792.327393,2899.999756 
	C3792.326660,2890.728516 3791.926514,2891.678711 3802.306885,2891.678223 
	C3914.967285,2891.670654 4027.627686,2891.673340 4140.288086,2891.673096 
	C4165.620117,2891.673096 4190.951660,2891.681885 4216.283691,2891.667725 
	C4224.910156,2891.662842 4224.339844,2891.048340 4224.338867,2899.738770 
	C4224.332520,2949.736084 4224.337891,2999.733154 4224.337891,3049.730469 
	C4224.338379,3137.392334 4224.352051,3225.053955 4224.323242,3312.715820 
	C4224.318848,3325.594238 4225.486816,3323.618164 4212.993652,3323.642822 
	C4172.995605,3323.721680 4132.998047,3323.672119 4092.000000,3323.672119 
z"/>
<path id="h" class="lim" fill="#FDFDFD" opacity="0" stroke="none" 
	d="
M3402.000000,2891.673096 
	C3447.997559,2891.673096 3492.995361,2891.672852 3537.992920,2891.673584 
	C3540.326172,2891.673584 3542.663574,2891.772705 3544.991455,2891.663574 
	C3548.324219,2891.507812 3549.933350,2892.851074 3549.679443,2896.320312 
	C3549.533936,2898.309082 3549.673096,2900.318115 3549.673096,2902.318115 
	C3549.674805,3039.310791 3549.675537,3176.303467 3549.675781,3313.296143 
	C3549.675781,3314.962646 3549.565186,3316.637939 3549.695557,3318.294189 
	C3549.985107,3321.973633 3548.722412,3324.018555 3544.676514,3323.694824 
	C3542.689697,3323.535645 3540.678955,3323.671387 3538.679199,3323.671387 
	C3402.019775,3323.671631 3265.360352,3323.688477 3128.700928,3323.643311 
	C3116.327881,3323.639160 3117.688477,3325.602051 3117.685547,3312.417480 
	C3117.654541,3175.758057 3117.650635,3039.098633 3117.692139,2902.439209 
	C3117.696045,2889.985352 3115.985596,2891.709229 3128.014404,2891.702148 
	C3219.009521,2891.649658 3310.004883,2891.673340 3402.000000,2891.673096 
z"/>
<path id="i" class="lim" fill="#FDFDFD" opacity="0" stroke="none" 
	d="
M4088.000000,2873.657227 
	C3993.338623,2873.657227 3899.677246,2873.656982 3806.015869,2873.656982 
	C3804.349365,2873.656982 3802.682373,2873.642822 3801.016113,2873.659668 
	C3791.904297,2873.752197 3792.324951,2873.994873 3792.325684,2864.946777 
	C3792.340332,2726.621338 3792.339111,2588.295654 3792.325928,2449.970215 
	C3792.325195,2440.677734 3791.928223,2441.668945 3802.314209,2441.668213 
	C3922.973877,2441.659912 4043.633789,2441.662842 4164.293457,2441.663086 
	C4181.625977,2441.663086 4198.958008,2441.674072 4216.290527,2441.656738 
	C4224.983398,2441.647949 4224.341309,2441.103516 4224.340332,2449.730957 
	C4224.334473,2504.394531 4224.337891,2559.058105 4224.337891,2613.721680 
	C4224.337891,2696.717041 4224.353027,2779.712158 4224.321777,2862.707520 
	C4224.316895,2875.621338 4225.467773,2873.605957 4212.993164,2873.628906 
	C4171.662109,2873.704834 4130.331055,2873.657471 4088.000000,2873.657227 
z"/>
<path id="j" class="lim" fill="#FEFEFE" opacity="0" stroke="none" 
	d="
M2847.665039,596.000000 
	C2847.665039,583.336731 2847.657227,571.673523 2847.667236,560.010254 
	C2847.675049,550.773193 2846.915527,551.697449 2856.456787,551.666260 
	C2857.456543,551.663025 2858.456055,551.665833 2859.455811,551.665833 
	C3055.398438,551.665833 3251.341064,551.652100 3447.283691,551.693604 
	C3461.911865,551.696716 3459.621338,549.935181 3459.631836,563.577637 
	C3459.703125,654.884216 3459.689453,746.190735 3459.643066,837.497314 
	C3459.637207,849.288879 3461.458008,848.317993 3449.197266,848.319092 
	C3251.921875,848.336060 3054.646240,848.337646 2857.370850,848.314148 
	C2846.375244,848.312866 2847.686523,849.662964 2847.682373,838.929077 
	C2847.650146,758.286072 2847.664795,677.643005 2847.665039,596.000000 
z"/>
<path id="k" class="lim" fill="#FCFCFC" opacity="0" stroke="none" 
	d="
M702.000183,3116.330811 
	C807.325989,3116.330811 911.651672,3116.330811 1015.977417,3116.330811 
	C1017.643982,3116.330811 1019.310608,3116.317383 1020.977051,3116.333252 
	C1029.588135,3116.416016 1029.663696,3116.418457 1029.666870,3125.028564 
	C1029.689819,3188.023926 1029.682495,3251.019287 1029.678101,3314.014648 
	C1029.677490,3324.562500 1030.506592,3323.673584 1019.969177,3323.674072 
	C877.312927,3323.678711 734.656616,3323.677002 592.000366,3323.676758 
	C463.676392,3323.676758 335.352448,3323.676758 207.028473,3323.676758 
	C205.028625,3323.676758 203.028671,3323.663818 201.028931,3323.678711 
	C191.941193,3323.746338 192.315582,3324.117920 192.318695,3314.997803 
	C192.340271,3252.002441 192.328384,3189.007080 192.330765,3126.011719 
	C192.331161,3115.488770 191.515884,3116.333740 202.036835,3116.333496 
	C368.357941,3116.329834 534.679016,3116.330811 702.000183,3116.330811 
z"/>
<path id="CubiculosIngles" class="lim" fill="#FDFDFD" opacity="0" stroke="none" 
	d="
M1498.000244,416.331757 
	C1548.645142,416.331757 1598.289917,416.331635 1647.934814,416.332245 
	C1650.267090,416.332275 1652.604492,416.438782 1654.930420,416.318817 
	C1658.289795,416.145508 1659.876099,417.529419 1659.683716,420.983185 
	C1659.554077,423.307953 1659.672119,425.646332 1659.672119,427.978607 
	C1659.672729,563.918884 1659.672852,699.859192 1659.672485,835.799500 
	C1659.672363,837.798645 1659.419800,839.835266 1659.714233,841.789734 
	C1660.547729,847.323792 1657.881226,848.915405 1652.900635,848.362915 
	C1651.255005,848.180298 1649.571899,848.334778 1647.906006,848.334778 
	C1526.625977,848.334778 1405.345825,848.350525 1284.065796,848.312927 
	C1270.328735,848.308655 1272.367065,849.804993 1272.362427,836.787537 
	C1272.313965,700.847229 1272.332642,564.906921 1272.332886,428.966644 
	C1272.332886,427.633911 1272.348511,426.300934 1272.330200,424.968445 
	C1272.204346,415.776215 1272.191772,416.319641 1281.095093,416.321808 
	C1353.063477,416.339111 1425.031738,416.331665 1498.000244,416.331757 
z"/>
<path id="m" class="lim" fill="#FDFDFD" opacity="0" stroke="none" 
	d="
M4224.337891,2274.000000 
	C4224.337891,2320.658447 4224.337891,2366.317139 4224.336914,2411.975586 
	C4224.336914,2414.308350 4224.238770,2416.645508 4224.346191,2418.973145 
	C4224.498535,2422.271484 4223.238281,2423.955811 4219.730957,2423.686523 
	C4217.743164,2423.534180 4215.733887,2423.664795 4213.734375,2423.664795 
	C4077.092041,2423.664795 3940.449951,2423.664551 3803.807617,2423.664307 
	C3802.141357,2423.664307 3800.447998,2423.469482 3798.813477,2423.697510 
	C3793.258789,2424.471680 3792.247803,2421.652588 3792.256836,2416.751953 
	C3792.375977,2352.430420 3792.319092,2288.108643 3792.356934,2223.786865 
	C3792.361328,2216.468994 3792.503418,2216.359863 3800.284424,2216.351318 
	C3837.277832,2216.309814 3874.270996,2216.333252 3911.264404,2216.332275 
	C3913.597412,2216.332031 3915.942139,2216.471680 3918.260742,2216.285645 
	C3923.754150,2215.844971 3926.838379,2213.088867 3927.538330,2207.761719 
	C3927.883057,2205.138428 3927.659912,2202.437744 3927.659912,2199.772217 
	C3927.663574,2134.117188 3927.663330,2068.462402 3927.663818,2002.807373 
	C3927.663818,2000.474487 3927.760498,1998.137207 3927.648438,1995.809814 
	C3927.509277,1992.917969 3928.638916,1991.498901 3931.659668,1991.649414 
	C3933.986816,1991.765503 3936.324219,1991.664307 3938.657227,1991.664307 
	C4030.307373,1991.663940 4121.957520,1991.639771 4213.607910,1991.692505 
	C4226.015137,1991.699585 4224.302734,1989.947754 4224.309570,2002.048340 
	C4224.361816,2092.365479 4224.337891,2182.682861 4224.337891,2274.000000 
z"/>
<path id="n" class="lim" fill="#FEFEFE" opacity="0" stroke="none" 
	d="
M939.669495,2972.000000 
	C939.669434,3011.995361 939.684265,3050.990723 939.657349,3089.986084 
	C939.651672,3098.199707 939.581116,3098.204346 931.716797,3098.324707 
	C930.050720,3098.350098 928.383911,3098.328369 926.717468,3098.328369 
	C686.079651,3098.328613 445.441833,3098.328857 204.804031,3098.328369 
	C192.337326,3098.328369 192.336609,3098.326660 192.336609,3085.499268 
	C192.336609,3024.839844 192.336945,2964.180664 192.337555,2903.521240 
	C192.337570,2901.188232 192.475220,2898.845459 192.311661,2896.524170 
	C192.078354,2893.212402 193.260620,2891.488037 196.788437,2891.666016 
	C199.115280,2891.783447 201.453293,2891.675049 203.786316,2891.675049 
	C445.423981,2891.674316 687.061646,2891.669189 928.699341,2891.688965 
	C941.605774,2891.689941 939.580994,2890.532715 939.638855,2903.008301 
	C939.743958,2925.671875 939.669189,2948.335938 939.669495,2972.000000 
z"/>
<path id="o" class="lim" fill="#FDFDFD" opacity="0" stroke="none" 
	d="
M3840.000000,533.666748 
	C3825.667725,533.665894 3812.330078,533.452881 3799.005371,533.769165 
	C3793.727051,533.894348 3791.663818,532.101501 3792.304932,526.925903 
	C3792.508301,525.284668 3792.334229,523.596802 3792.334229,521.930237 
	C3792.334229,415.604462 3792.312500,309.278687 3792.363037,202.952911 
	C3792.368896,190.525879 3790.391357,191.679688 3803.349365,191.677521 
	C3940.006348,191.654663 4076.663330,191.663406 4213.320312,191.663910 
	C4215.653320,191.663925 4217.992188,191.770264 4220.318359,191.647598 
	C4223.317383,191.489456 4224.517090,192.838760 4224.351562,195.763596 
	C4224.238281,197.756897 4224.337402,199.762039 4224.337402,201.761887 
	C4224.337402,308.754272 4224.348633,415.746674 4224.323242,522.739075 
	C4224.320312,535.599548 4225.493164,533.633850 4212.973633,533.638550 
	C4088.982422,533.685059 3964.991211,533.666687 3840.000000,533.666748 
z"/>
<path id="Almacen" class="lim" fill="#FDFDFD" opacity="0" stroke="none" 
	d="
M2199.669189,1967.341064 
	C2199.759521,1971.136353 2199.509766,1973.713867 2195.654541,1973.649658 
	C2193.323730,1973.610718 2190.991211,1973.665405 2188.659424,1973.665405 
	C2081.727295,1973.666748 1974.795288,1973.666748 1867.863281,1973.666504 
	C1866.197632,1973.666504 1864.517822,1973.522583 1862.869263,1973.689331 
	C1859.000244,1974.081055 1857.325439,1972.465820 1857.637329,1968.573608 
	C1857.796387,1966.587769 1857.662354,1964.578369 1857.662354,1962.579712 
	C1857.662354,1825.999878 1857.661743,1689.420044 1857.662842,1552.840210 
	C1857.662964,1541.676636 1857.667603,1541.672485 1868.590088,1541.672363 
	C1975.188965,1541.671143 2081.787842,1541.656494 2188.386719,1541.690552 
	C2201.532959,1541.694702 2199.639893,1540.283691 2199.643799,1552.665771 
	C2199.688477,1690.578125 2199.671387,1828.490479 2199.669189,1967.341064 
z"/>
<path id="q" class="lim" fill="#FDFDFD" opacity="0" stroke="none" 
	d="
M2624.000000,1541.671753 
	C2674.997803,1541.671631 2724.995850,1541.653320 2774.993652,1541.686401 
	C2785.200684,1541.693237 2784.327881,1540.365112 2784.328857,1550.442383 
	C2784.342773,1688.436523 2784.338623,1826.430542 2784.339111,1964.424683 
	C2784.339111,1965.757935 2784.263916,1967.096069 2784.351318,1968.423462 
	C2784.591064,1972.065796 2783.413818,1974.171997 2779.282715,1973.700073 
	C2777.308594,1973.474487 2775.287354,1973.666382 2773.287354,1973.666382 
	C2666.625244,1973.666870 2559.963135,1973.678833 2453.301025,1973.651123 
	C2440.811279,1973.647949 2442.345947,1974.991211 2442.343018,1962.269653 
	C2442.312744,1825.942139 2442.324219,1689.614746 2442.324219,1553.287231 
	C2442.324219,1552.287231 2442.324951,1551.287354 2442.325195,1550.287354 
	C2442.328613,1541.804565 2441.166260,1541.653809 2451.007080,1541.658447 
	C2508.338135,1541.685547 2565.668945,1541.671753 2624.000000,1541.671753 
z"/>
<path id="r" class="lim" fill="#FDFDFD" opacity="0" stroke="none" 
	d="
M1524.345581,3228.000000 
	C1524.345581,3257.663818 1524.318481,3286.327393 1524.360474,3314.991211 
	C1524.375000,3324.906494 1524.130371,3323.673340 1515.734131,3323.673340 
	C1442.408325,3323.672607 1369.082642,3323.673340 1295.756836,3323.673340 
	C1216.765015,3323.673340 1137.773071,3323.673584 1058.781250,3323.673096 
	C1056.448120,3323.672852 1054.110962,3323.574707 1051.783081,3323.682861 
	C1048.763184,3323.822998 1047.583496,3322.370605 1047.666626,3319.491211 
	C1047.733887,3317.160400 1047.662354,3314.825684 1047.662354,3312.492676 
	C1047.661377,3220.835449 1047.645630,3129.178223 1047.679565,3037.520996 
	C1047.684326,3024.450928 1046.359619,3026.364746 1058.774414,3026.361328 
	C1210.092163,3026.319824 1361.409790,3026.334717 1512.727539,3026.334717 
	C1513.727417,3026.334717 1514.727417,3026.327148 1515.727173,3026.335693 
	C1524.258301,3026.410156 1524.331055,3026.410889 1524.333984,3035.019775 
	C1524.355347,3099.013184 1524.345581,3163.006592 1524.345581,3228.000000 
z"/>
<path id="s" class="lim" fill="#FEFEFE" opacity="0" stroke="none" 
	d="
M360.000183,641.663391 
	C517.985535,641.663391 674.970947,641.663391 831.956299,641.663391 
	C834.289429,641.663391 836.622620,641.649170 838.955627,641.665771 
	C851.390320,641.754333 849.630798,640.657471 849.640015,652.236450 
	C849.689209,714.230652 849.663269,776.224915 849.662659,838.219116 
	C849.662659,840.218933 849.569153,842.223206 849.673157,844.217468 
	C849.830933,847.242126 848.362976,848.411987 845.482361,848.324402 
	C843.151672,848.253418 840.816711,848.330872 838.483643,848.330872 
	C626.836731,848.331970 415.189789,848.340149 203.542847,848.312317 
	C190.478516,848.310608 192.375763,849.723328 192.363281,837.252136 
	C192.301590,775.591248 192.335251,713.930298 192.336853,652.269348 
	C192.336914,649.936401 192.390930,647.602905 192.351685,645.270752 
	C192.309143,642.743652 193.681061,641.723694 196.016556,641.695862 
	C198.682632,641.664062 201.349182,641.664612 204.015533,641.664551 
	C255.677078,641.663025 307.338623,641.663391 360.000183,641.663391 
z"/>
<path id="t" class="lim" fill="#FDFDFD" opacity="0" stroke="none" 
	d="
M1340.048340,2216.332520 
	C1502.699829,2216.332520 1664.357422,2216.332520 1826.015015,2216.332764 
	C1828.014893,2216.332764 1830.015503,2216.302246 1832.014648,2216.338867 
	C1839.520874,2216.476562 1839.648682,2216.484375 1839.651733,2224.081055 
	C1839.683960,2303.076660 1839.683228,2382.072021 1839.652100,2461.067627 
	C1839.649292,2468.143311 1839.520508,2468.152344 1832.639282,2468.329834 
	C1830.973755,2468.372803 1829.306274,2468.336670 1827.639648,2468.336670 
	C1661.315674,2468.336914 1494.991577,2468.352051 1328.667603,2468.307861 
	C1315.816040,2468.304688 1317.708252,2470.148438 1317.697266,2457.222656 
	C1317.632324,2380.893555 1317.635864,2304.564697 1317.692017,2228.235596 
	C1317.702393,2214.110352 1316.023682,2216.595215 1330.055176,2216.340332 
	C1333.054077,2216.285889 1336.054688,2216.332275 1340.048340,2216.332520 
z"/>
<path id="u" class="lim" fill="#FDFDFD" opacity="0" stroke="none" 
	d="
M3099.674316,1646.000244 
	C3099.674072,1752.284790 3099.684082,1857.569214 3099.660400,1962.853760 
	C3099.657715,1974.907715 3100.881348,1973.654785 3089.103760,1973.657471 
	C2997.146484,1973.679199 2905.188965,1973.669434 2813.231689,1973.669434 
	C2811.565674,1973.669434 2809.888428,1973.542480 2808.236084,1973.692383 
	C2804.168945,1974.061279 2801.791748,1972.805542 2802.296631,1968.207397 
	C2802.477295,1966.561523 2802.321777,1964.878784 2802.321777,1963.212891 
	C2802.321777,1826.276367 2802.308838,1689.339844 2802.345215,1552.403320 
	C2802.348389,1540.668213 2800.596680,1541.684570 2812.878418,1541.681519 
	C2904.835693,1541.659058 2996.793213,1541.669189 3088.750488,1541.670410 
	C3091.082764,1541.670410 3093.415283,1541.722778 3095.746826,1541.685059 
	C3098.761475,1541.636230 3099.809570,1543.220825 3099.682861,1546.046875 
	C3099.578613,1548.374268 3099.673828,1550.710327 3099.673828,1553.042603 
	C3099.674316,1583.695068 3099.674316,1614.347656 3099.674316,1646.000244 
z"/>
<path id="Salon" class="lim" fill="#FDFDFD" opacity="0" stroke="none" 
	d="
M1839.675049,2688.000000 
	C1839.675049,2760.965820 1839.674927,2832.931885 1839.674927,2904.897705 
	C1839.674805,2906.896729 1839.704102,2908.896484 1839.668213,2910.895020 
	C1839.536499,2918.204346 1839.528564,2918.308350 1831.826416,2918.315430 
	C1792.511719,2918.352539 1753.196899,2918.330811 1713.882202,2918.330322 
	C1660.574097,2918.329834 1607.265991,2918.330566 1553.957886,2918.329346 
	C1551.292603,2918.329346 1548.626953,2918.335205 1545.962036,2918.298828 
	C1543.603760,2918.266846 1542.296265,2917.177490 1542.345459,2914.673584 
	C1542.391235,2912.342529 1542.333130,2910.009521 1542.333008,2907.677490 
	C1542.331909,2771.075439 1542.332153,2634.473633 1542.332275,2497.871582 
	C1542.332275,2496.205566 1542.522339,2494.514160 1542.300415,2492.878418 
	C1541.561157,2487.430664 1544.181152,2486.218506 1549.178467,2486.245850 
	C1580.829102,2486.419434 1612.481323,2486.333252 1644.132935,2486.333008 
	C1704.770874,2486.332764 1765.408936,2486.333008 1826.046875,2486.333252 
	C1827.712769,2486.333252 1829.378906,2486.349609 1831.044556,2486.330322 
	C1840.250977,2486.223633 1839.681152,2486.126709 1839.679688,2495.090820 
	C1839.668701,2559.060547 1839.674561,2623.030273 1839.675049,2688.000000 
z"/>
<path id="w" class="lim" fill="#FEFEFE" opacity="0" stroke="none" 
	d="
M3290.000000,1838.326416 
	C3236.017578,1838.326538 3183.035400,1838.326538 3130.052979,1838.326660 
	C3128.719971,1838.326660 3127.387207,1838.331909 3126.054199,1838.326904 
	C3116.763428,1838.292236 3117.672852,1839.198608 3117.671631,1829.607910 
	C3117.663086,1750.967407 3117.667725,1672.326904 3117.667969,1593.686401 
	C3117.667969,1578.358154 3117.853516,1563.026489 3117.559814,1547.703857 
	C3117.466797,1542.849121 3118.944336,1540.937744 3123.746094,1541.638672 
	C3125.051270,1541.829346 3126.407715,1541.671997 3127.740479,1541.671997 
	C3264.694824,1541.672607 3401.649414,1541.661255 3538.603760,1541.692505 
	C3551.538574,1541.695557 3549.637695,1540.332520 3549.645020,1552.876831 
	C3549.699219,1644.179810 3549.674316,1735.482788 3549.673828,1826.785767 
	C3549.673828,1828.118652 3549.692627,1829.451904 3549.667969,1830.784302 
	C3549.530518,1838.184692 3549.526855,1838.299072 3541.916504,1838.306885 
	C3501.929932,1838.348022 3461.943115,1838.326294 3421.956543,1838.326416 
	C3378.304443,1838.326416 3334.652100,1838.326416 3290.000000,1838.326416 
z"/>
<path id="x" class="lim" fill="#FCFCFC" opacity="0" stroke="none" 
	d="
M1839.677002,3291.991699 
	C1839.675903,3301.321289 1839.500732,3309.658691 1839.745239,3317.983398 
	C1839.872803,3322.328613 1838.304443,3324.131592 1833.971069,3323.706787 
	C1831.990356,3323.512939 1829.974854,3323.676270 1827.975098,3323.676270 
	C1736.654907,3323.676514 1645.334595,3323.676758 1554.014404,3323.676758 
	C1553.014526,3323.676758 1552.014648,3323.685059 1551.014893,3323.674805 
	C1542.418335,3323.586182 1542.342651,3323.585205 1542.341431,3314.958496 
	C1542.324707,3191.642822 1542.335571,3068.327393 1542.318481,2945.011719 
	C1542.317261,2935.897461 1541.957153,2936.315186 1551.026611,2936.316895 
	C1644.013184,2936.334717 1736.999878,2936.327393 1829.986450,2936.329834 
	C1840.458496,2936.330078 1839.674561,2935.511475 1839.674805,2946.043701 
	C1839.678223,3061.027100 1839.676880,3176.010742 1839.677002,3291.991699 
z"/>
<path id="y" class="lim" fill="#FDFDFD" opacity="0" stroke="none" 
	d="
M4112.000000,551.662598 
	C4146.988281,551.662659 4180.976562,551.638123 4214.964844,551.677551 
	C4225.305664,551.689514 4224.323730,550.448975 4224.328613,560.400452 
	C4224.351074,608.383911 4224.344238,656.367432 4224.333496,704.350891 
	C4224.331055,715.193848 4224.838867,713.644470 4214.356934,713.645935 
	C4073.072266,713.665405 3931.787598,713.658569 3790.502930,713.658203 
	C3748.850586,713.658081 3707.198486,713.674255 3665.546143,713.642944 
	C3657.831787,713.637146 3657.692139,713.548767 3657.685547,706.234680 
	C3657.642090,656.918335 3657.731934,607.601746 3657.558350,558.286011 
	C3657.540527,553.177795 3658.780273,551.028687 3664.162842,551.574951 
	C3668.450439,552.010254 3672.817627,551.662659 3677.149414,551.662659 
	C3821.766357,551.662659 3966.383057,551.662598 4112.000000,551.662598 
z"/>
<path id="BodegaElec" class="lim" fill="#FCFCFC" opacity="0" stroke="none" 
	d="
M1839.677002,1618.000244 
	C1839.677002,1733.270386 1839.692871,1847.540649 1839.655396,1961.810791 
	C1839.651001,1975.290894 1841.221924,1973.637573 1828.137695,1973.648438 
	C1766.838257,1973.699585 1705.538818,1973.671265 1644.239380,1973.671143 
	C1642.240479,1973.671143 1640.229980,1973.530396 1638.245117,1973.696045 
	C1634.164673,1974.036743 1631.832275,1972.758789 1632.300171,1968.178467 
	C1632.502319,1966.200439 1632.330200,1964.184326 1632.330200,1962.185425 
	C1632.330078,1825.594238 1632.317261,1689.003052 1632.353149,1552.411865 
	C1632.356201,1540.710693 1630.550903,1541.682007 1642.865112,1541.677490 
	C1704.830811,1541.654663 1766.796631,1541.666870 1828.762329,1541.666870 
	C1830.761230,1541.666870 1832.770996,1541.802856 1834.756714,1541.641479 
	C1838.821899,1541.311035 1839.757446,1543.369995 1839.725708,1547.039062 
	C1839.593384,1562.362671 1839.674561,1577.688354 1839.676636,1593.013184 
	C1839.677856,1601.008789 1839.677002,1609.004517 1839.677002,1618.000244 
z"/>
<path id="JefaturaSD" class="lim" fill="#FEFEFE" opacity="0" stroke="none" 
	d="
M1601.774780,1973.665039 
	C1540.490967,1973.665039 1480.178345,1973.664917 1419.865845,1973.664429 
	C1417.533325,1973.664429 1415.186157,1973.491211 1412.871460,1973.692749 
	C1409.002319,1974.029663 1407.322510,1972.462769 1407.638916,1968.564697 
	C1407.800171,1966.578613 1407.664307,1964.568359 1407.664307,1962.569092 
	C1407.664307,1825.949463 1407.645630,1689.329834 1407.694824,1552.710205 
	C1407.699463,1539.795410 1405.852783,1541.719238 1418.726562,1541.704712 
	C1480.705200,1541.634888 1542.683838,1541.652710 1604.662476,1541.692139 
	C1615.602295,1541.699097 1614.322998,1540.275757 1614.325073,1551.098511 
	C1614.351929,1688.717773 1614.342651,1826.337036 1614.342407,1963.956299 
	C1614.342407,1964.955933 1614.236816,1965.968384 1614.357910,1966.953003 
	C1614.978638,1972.003296 1613.184937,1974.541382 1607.738403,1973.701294 
	C1606.111084,1973.450317 1604.412231,1973.664062 1601.774780,1973.665039 
z"/>
<path id="Bannos2" class="lim" fill="#FEFEFE" opacity="0" stroke="none" 
	d="
M1317.667603,1015.999817 
	C1317.667603,969.351746 1317.667480,923.703735 1317.668091,878.055725 
	C1317.668091,875.723389 1317.761230,873.387146 1317.657227,871.059570 
	C1317.511108,867.785889 1318.724121,866.053528 1322.250366,866.320679 
	C1324.237915,866.471252 1326.246704,866.338806 1328.245850,866.338806 
	C1390.220581,866.337952 1452.195190,866.337646 1514.169922,866.337891 
	C1516.169067,866.337891 1518.172729,866.430237 1520.166260,866.326660 
	C1523.145996,866.171875 1524.416260,867.561646 1524.333618,870.464233 
	C1524.276733,872.461548 1524.342041,874.462097 1524.342041,876.461243 
	C1524.343018,1013.738464 1524.342896,1151.015747 1524.342285,1288.292969 
	C1524.342285,1290.292114 1524.239502,1292.296631 1524.352661,1294.289185 
	C1524.521484,1297.262085 1523.210815,1298.514160 1520.262817,1298.343018 
	C1518.270630,1298.227295 1516.265747,1298.328491 1514.266602,1298.328491 
	C1451.958740,1298.328735 1389.650879,1298.350098 1327.343018,1298.307495 
	C1316.384888,1298.299927 1317.689819,1299.690796 1317.686035,1288.888672 
	C1317.653564,1198.259033 1317.667603,1107.629517 1317.667603,1015.999817 
z"/>
<path id="cc" class="lim" fill="#FEFEFE" opacity="0" stroke="none" 
	d="
M3324.342529,1068.000244 
	C3324.342529,1141.304077 3324.342529,1213.607788 3324.342529,1285.911621 
	C3324.342529,1287.910767 3324.094971,1289.947144 3324.388672,1291.902100 
	C3325.213623,1297.390015 3322.635742,1298.434814 3317.647461,1298.423706 
	C3253.340576,1298.279419 3189.033691,1298.340942 3124.726562,1298.307617 
	C3117.757324,1298.304077 3117.683594,1298.179688 3117.679932,1290.270508 
	C3117.656738,1238.291748 3117.668213,1186.312988 3117.667969,1134.334229 
	C3117.667969,1048.702515 3117.652344,963.070862 3117.684570,877.439148 
	C3117.689453,864.435547 3116.439209,866.380066 3128.862549,866.367188 
	C3190.503906,866.303040 3252.145508,866.337341 3313.786865,866.338867 
	C3316.119141,866.338928 3318.451660,866.393555 3320.783203,866.359741 
	C3323.343994,866.322693 3324.269287,867.794922 3324.306396,870.081055 
	C3324.349365,872.746033 3324.341309,875.411926 3324.341309,878.077454 
	C3324.342773,941.051697 3324.342529,1004.025879 3324.342529,1068.000244 
z"/>
<path id="Papeleria" class="lim" fill="#FEFEFE" opacity="0" stroke="none" 
	d="
M1254.342896,612.000183 
	C1254.342896,687.304626 1254.342896,761.608948 1254.342773,835.913330 
	C1254.342773,837.912537 1254.093384,839.948853 1254.386841,841.903870 
	C1255.211182,847.395508 1252.623779,848.436584 1247.640503,848.425598 
	C1183.332642,848.283386 1119.024170,848.345154 1054.715942,848.313660 
	C1047.750366,848.310242 1047.678467,848.189331 1047.675415,840.275085 
	C1047.653809,784.296936 1047.664185,728.318726 1047.664185,672.340576 
	C1047.664429,590.705750 1047.646973,509.070892 1047.681885,427.436066 
	C1047.687500,414.463165 1046.399658,416.376678 1058.858521,416.363953 
	C1120.501221,416.300903 1182.143799,416.334839 1243.786499,416.336487 
	C1246.118652,416.336548 1248.451416,416.391663 1250.782959,416.357727 
	C1253.340942,416.320526 1254.271851,417.783264 1254.306396,420.075012 
	C1254.346436,422.740112 1254.341553,425.405975 1254.341675,428.071533 
	C1254.343262,489.047729 1254.342896,550.023926 1254.342896,612.000183 
z"/>
<path id="ee" class="lim" fill="#FDFDFD" opacity="0" stroke="none" 
	d="
M2756.000000,398.328400 
	C2654.347412,398.328400 2553.694580,398.336731 2453.041992,398.317780 
	C2440.593262,398.315460 2442.356934,399.286224 2442.347656,387.753937 
	C2442.298340,325.762634 2442.323975,263.771240 2442.324463,201.779861 
	C2442.324463,199.780151 2442.418457,197.775925 2442.314941,195.781784 
	C2442.157959,192.763184 2443.616211,191.581223 2446.499268,191.667969 
	C2448.829834,191.738113 2451.164551,191.664322 2453.497559,191.664307 
	C2575.147217,191.663345 2696.797119,191.649994 2818.446777,191.682953 
	C2831.520020,191.686493 2829.633301,190.293701 2829.646484,202.737274 
	C2829.710938,264.395294 2829.676025,326.053406 2829.674072,387.711487 
	C2829.674072,390.044281 2829.613037,392.377716 2829.649414,394.709747 
	C2829.688721,397.230347 2828.330322,398.262482 2825.989746,398.294312 
	C2823.656982,398.326019 2821.323975,398.326874 2818.990967,398.327118 
	C2798.327393,398.329315 2777.663574,398.328400 2756.000000,398.328400 
z"/>
<path id="ff" class="lim" fill="#FCFCFC" opacity="0" stroke="none" 
	d="
M2082.319580,3276.000000 
	C2082.319580,3226.030273 2082.319336,3177.060791 2082.320801,3128.091064 
	C2082.320801,3125.759277 2082.429199,3123.422607 2082.317627,3121.096680 
	C2082.157471,3117.763916 2083.495117,3116.112549 2086.968262,3116.323486 
	C2088.959229,3116.444092 2090.964111,3116.331055 2092.962891,3116.331055 
	C2199.896729,3116.330566 2306.830566,3116.330322 2413.764404,3116.330078 
	C2414.763672,3116.330078 2415.763428,3116.315186 2416.762451,3116.332764 
	C2424.189453,3116.462646 2424.314941,3116.464600 2424.319092,3124.042725 
	C2424.354980,3188.003174 2424.355713,3251.963623 2424.323975,3315.924072 
	C2424.320312,3323.538086 2424.200195,3323.657227 2416.801514,3323.658936 
	C2307.868896,3323.684814 2198.936523,3323.685547 2090.003906,3323.658203 
	C2082.466797,3323.656250 2082.379639,3323.529785 2082.338867,3315.976074 
	C2082.269043,3302.984375 2082.319580,3289.991943 2082.319580,3276.000000 
z"/>
<path id="gg" class="lim" fill="#FEFEFE" opacity="0" stroke="none" 
	d="
M4104.000000,731.675659 
	C4141.977051,731.675476 4178.953613,731.672363 4215.930664,731.677368 
	C4224.709473,731.678528 4224.339355,730.718079 4224.336914,739.382324 
	C4224.326172,773.361145 4224.356445,807.339966 4224.311523,841.318726 
	C4224.302734,848.188354 4224.182129,848.276917 4217.230957,848.310974 
	C4203.905762,848.376282 4190.581055,848.330017 4177.255859,848.330017 
	C4008.028076,848.330017 3838.800049,848.330139 3669.572266,848.329773 
	C3657.669189,848.329773 3657.666992,848.328186 3657.666504,836.129211 
	C3657.665527,804.482300 3657.628662,772.835266 3657.686279,741.188477 
	C3657.706299,730.263306 3656.380127,731.699646 3667.271729,731.697021 
	C3803.520020,731.664429 3939.768555,731.675659 4076.016846,731.675659 
	C4085.011230,731.675659 4094.005615,731.675659 4104.000000,731.675659 
z"/>
<path id="Prefectura" class="lim" fill="#FDFDFD" opacity="0" stroke="none" 
	d="
M1677.662598,559.999817 
	C1677.662598,515.338989 1677.662354,471.678192 1677.662964,428.017426 
	C1677.663086,425.684418 1677.762817,423.347046 1677.652222,421.019470 
	C1677.495117,417.712921 1678.769653,416.044006 1682.269775,416.309174 
	C1684.257935,416.459778 1686.267090,416.329987 1688.266846,416.329987 
	C1779.921143,416.329803 1871.575439,416.306519 1963.229736,416.357758 
	C1975.653931,416.364685 1974.320190,414.451996 1974.329102,427.511536 
	C1974.370850,489.169861 1974.347656,550.828247 1974.347412,612.486572 
	C1974.347412,614.486328 1974.245483,616.491882 1974.364014,618.484497 
	C1974.584106,622.183960 1973.313110,624.175720 1969.231934,623.701355 
	C1967.259033,623.471985 1965.237183,623.667114 1963.237427,623.667114 
	C1871.916382,623.667358 1780.595337,623.667236 1689.274292,623.667236 
	C1687.941162,623.667236 1686.607666,623.685791 1685.274902,623.663696 
	C1677.810059,623.539917 1677.708862,623.536926 1677.683472,615.992554 
	C1677.621582,597.661804 1677.662964,579.330811 1677.662598,559.999817 
z"/>
<path id="ii" class="lim" fill="#FDFDFD" opacity="0" stroke="none" 
	d="
M3202.000488,191.662567 
	C3284.987061,191.662567 3366.973633,191.653198 3448.960449,191.672531 
	C3461.404053,191.675476 3459.639893,190.737305 3459.649170,202.252655 
	C3459.698730,264.242584 3459.671875,326.232605 3459.671387,388.222595 
	C3459.671387,390.222260 3459.576660,392.226410 3459.679443,394.220520 
	C3459.835693,397.250214 3458.352051,398.408539 3455.479736,398.324463 
	C3453.148926,398.256256 3450.814453,398.328400 3448.481445,398.328430 
	C3356.829590,398.329468 3265.177734,398.346344 3173.525879,398.310120 
	C3160.447754,398.304962 3162.364990,399.676514 3162.352295,387.239868 
	C3162.288330,325.583221 3162.323242,263.926483 3162.323486,202.269791 
	C3162.323486,200.603394 3162.488037,198.917831 3162.294678,197.274307 
	C3161.774902,192.856369 3163.790771,191.524872 3168.007568,191.599487 
	C3179.002197,191.794052 3190.002686,191.663467 3202.000488,191.662567 
z"/>
<path id="jj" class="lim" fill="#FEFEFE" opacity="0" stroke="none" 
	d="
M2958.000000,398.324829 
	C2923.361084,398.325317 2889.721924,398.332214 2856.083008,398.322113 
	C2846.744385,398.319305 2847.673584,399.213043 2847.671875,389.648956 
	C2847.659912,326.367676 2847.667969,263.086365 2847.663574,199.805084 
	C2847.663086,191.317917 2846.904053,191.657074 2855.656494,191.658371 
	C2949.246094,191.672241 3042.835938,191.671692 3136.425537,191.659439 
	C3145.215088,191.658295 3144.333740,191.326843 3144.333984,199.862823 
	C3144.335693,263.144135 3144.343506,326.425415 3144.326172,389.706726 
	C3144.323486,399.184448 3145.331543,398.322296 3135.854736,398.323395 
	C3076.903076,398.330322 3017.951660,398.325653 2958.000000,398.324829 
z"/>
<path id="ControlAsistencia" class="lim" fill="#FEFEFE" opacity="0" stroke="none" 
	d="
M1947.989990,848.330017 
	C1861.726074,848.329956 1776.461548,848.329956 1691.197021,848.329956 
	C1689.198608,848.329956 1687.200073,848.311829 1685.201782,848.332275 
	C1676.924805,848.417175 1677.665405,848.570496 1677.666260,840.750916 
	C1677.672974,777.135559 1677.666626,713.520203 1677.671631,649.904846 
	C1677.672485,640.709595 1676.942505,641.672241 1686.533447,641.671143 
	C1771.464966,641.661072 1856.396362,641.665344 1941.327881,641.665466 
	C1950.653687,641.665466 1959.983032,641.817078 1969.303589,641.595093 
	C1973.221802,641.501770 1974.779541,642.874634 1974.367432,646.740356 
	C1974.191895,648.386902 1974.341431,650.067871 1974.341431,651.733215 
	C1974.341431,714.016296 1974.361694,776.299377 1974.322144,838.582458 
	C1974.315063,849.627808 1975.612061,848.216125 1964.976440,848.320923 
	C1959.648071,848.373474 1954.318481,848.330017 1947.989990,848.330017 
z"/>
<path id="ll" class="lim" fill="#FEFEFE" opacity="0" stroke="none" 
	d="
M3477.669189,383.934845 
	C3477.669189,323.653015 3477.669189,264.367096 3477.669189,205.081207 
	C3477.669189,203.415863 3477.663086,201.750504 3477.669678,200.085190 
	C3477.707764,190.744690 3476.791992,191.672577 3486.351807,191.671265 
	C3561.958008,191.660858 3637.564209,191.666245 3713.170410,191.666718 
	C3730.489990,191.666824 3747.809326,191.633575 3765.128906,191.679245 
	C3775.250977,191.705933 3774.324707,190.504791 3774.331055,200.568710 
	C3774.354492,238.538315 3774.341064,276.507935 3774.341064,314.477570 
	C3774.341309,339.790649 3774.327881,365.103760 3774.346924,390.416840 
	C3774.353760,399.240540 3774.645996,398.326416 3766.144287,398.326416 
	C3672.885498,398.326172 3579.626953,398.330017 3486.368164,398.320343 
	C3476.817871,398.319336 3477.689209,399.254333 3477.668457,389.926971 
	C3477.664795,388.261566 3477.668701,386.596191 3477.669189,383.934845 
z"/>
<path id="mm" class="lim" fill="#FCFCFC" opacity="0" stroke="none" 
	d="
M1092.329956,2396.000000 
	C1092.329956,2339.375244 1092.329834,2283.750732 1092.330444,2228.125977 
	C1092.330444,2225.794434 1092.427734,2223.458740 1092.320435,2221.132324 
	C1092.168335,2217.837646 1093.428589,2216.108398 1096.934570,2216.321045 
	C1098.925415,2216.441650 1100.930176,2216.329346 1102.928589,2216.329346 
	C1164.881836,2216.328125 1226.834961,2216.327637 1288.788208,2216.327637 
	C1290.786621,2216.327637 1292.789062,2216.414062 1294.782715,2216.317627 
	C1297.994263,2216.162842 1299.875732,2217.249268 1299.684326,2220.825439 
	C1299.559814,2223.150146 1299.676147,2225.487061 1299.676147,2227.818604 
	C1299.677002,2304.094238 1299.676880,2380.370117 1299.677002,2456.645752 
	C1299.677002,2457.312012 1299.682617,2457.978027 1299.676025,2458.644287 
	C1299.575928,2468.705322 1301.190918,2468.343506 1290.085571,2468.343018 
	C1227.466187,2468.341309 1164.846802,2468.343506 1102.227417,2468.344238 
	C1100.895142,2468.344238 1099.542847,2468.195557 1098.234009,2468.370605 
	C1093.142212,2469.050537 1092.188354,2466.472656 1092.246216,2461.950195 
	C1092.459595,2445.298828 1092.330322,2428.643066 1092.330078,2411.989014 
	C1092.329956,2406.992676 1092.329956,2401.996338 1092.329956,2396.000000 
z"/>
<path id="nn" class="lim" fill="#FDFDFD" opacity="0" stroke="none" 
	d="
M3567.663574,3174.000000 
	C3567.663574,3142.016602 3567.661133,3111.033203 3567.664795,3080.049805 
	C3567.665771,3071.391113 3566.722900,3071.654297 3575.411377,3071.656250 
	C3639.043945,3071.671387 3702.676514,3071.668457 3766.309082,3071.659668 
	C3774.949463,3071.658203 3774.345947,3071.093750 3774.345459,3079.750488 
	C3774.341064,3158.375000 3774.353271,3236.999512 3774.327881,3315.624023 
	C3774.325195,3323.578857 3774.225098,3323.656250 3766.108643,3323.658936 
	C3702.809082,3323.680908 3639.509766,3323.680176 3576.210205,3323.659668 
	C3567.746582,3323.656738 3567.679199,3323.588379 3567.674805,3314.925049 
	C3567.650879,3268.283447 3567.663574,3221.641602 3567.663574,3174.000000 
z"/>
<path id="oo" class="lim" fill="#FDFDFD" opacity="0" stroke="none" 
	d="
M3609.991455,848.334229 
	C3568.348145,848.334045 3527.703857,848.361572 3487.059326,848.314880 
	C3476.345215,848.302612 3477.688477,849.614563 3477.684570,838.614380 
	C3477.651123,746.331543 3477.665283,654.048706 3477.665527,561.765869 
	C3477.665527,559.766968 3477.763916,557.762756 3477.650635,555.770447 
	C3477.484863,552.854797 3478.666748,551.459595 3481.670654,551.650085 
	C3483.329590,551.755249 3485.000977,551.661560 3486.666748,551.661560 
	C3534.640381,551.661743 3582.614258,551.662109 3630.587891,551.663940 
	C3632.253662,551.664001 3633.920654,551.725952 3635.584717,551.676514 
	C3638.516113,551.589539 3639.822510,552.958496 3639.681885,555.889771 
	C3639.586182,557.883911 3639.673096,559.886658 3639.673096,561.885559 
	C3639.673096,653.835205 3639.672363,745.784912 3639.671875,837.734558 
	C3639.671875,838.734009 3639.684570,839.733704 3639.666260,840.732849 
	C3639.530029,848.192017 3639.528564,848.243958 3631.978516,848.320435 
	C3624.983154,848.391296 3617.986328,848.334717 3609.991455,848.334229 
z"/>
<path id="pp" class="lim" fill="#FCFCFC" opacity="0" stroke="none" 
	d="
M2716.000000,713.664612 
	C2686.693359,713.665161 2658.386475,713.695068 2630.079834,713.646790 
	C2622.477783,713.633850 2622.353516,713.524719 2622.347656,706.044128 
	C2622.308350,657.090210 2622.310547,608.136230 2622.345947,559.182312 
	C2622.351318,551.798584 2622.464355,551.679504 2630.080078,551.675598 
	C2694.020020,551.642517 2757.959717,551.642517 2821.899658,551.675171 
	C2829.535645,551.679077 2829.656006,551.797363 2829.661621,559.167175 
	C2829.698730,608.121094 2829.701416,657.075073 2829.657227,706.028992 
	C2829.650391,713.516052 2829.511475,713.634399 2821.901367,713.644409 
	C2786.934326,713.690430 2751.967041,713.664612 2716.000000,713.664612 
z"/>
<path id="qq" class="lim" fill="#FCFCFC" opacity="0" stroke="none" 
	d="
M3729.671875,1949.951294 
	C3729.667725,1956.935791 3729.573975,1962.932495 3729.694824,1968.924683 
	C3729.762207,1972.266357 3728.509277,1973.900513 3725.038330,1973.683838 
	C3723.048096,1973.559570 3721.043213,1973.673462 3719.044922,1973.673462 
	C3672.085693,1973.673950 3625.126221,1973.674072 3578.166992,1973.673218 
	C3576.168701,1973.673096 3574.161377,1973.540894 3572.174072,1973.686279 
	C3568.605469,1973.947632 3567.479004,1972.114014 3567.648438,1968.890015 
	C3567.735596,1967.229614 3567.655518,1965.560425 3567.655518,1963.895264 
	C3567.655029,1901.282837 3567.655029,1838.670288 3567.655762,1776.057861 
	C3567.655762,1774.392700 3567.738525,1772.723267 3567.648926,1771.063110 
	C3567.472900,1767.805054 3568.673584,1766.042603 3572.212402,1766.308960 
	C3574.199219,1766.458496 3576.207031,1766.328613 3578.205322,1766.328613 
	C3625.164551,1766.328003 3672.124023,1766.327637 3719.083252,1766.328979 
	C3721.414551,1766.328979 3723.745850,1766.339355 3726.077148,1766.353760 
	C3728.567627,1766.369263 3729.628662,1767.760498 3729.645752,1770.116577 
	C3729.665039,1772.780762 3729.671387,1775.445190 3729.671387,1778.109497 
	C3729.672363,1835.060181 3729.671875,1892.010864 3729.671875,1949.951294 
z"/>
<path id="rr" class="lim" fill="#FDFDFD" opacity="0" stroke="none" 
	d="
M3622.000000,1541.670898 
	C3655.979004,1541.669556 3688.958252,1541.643799 3721.937256,1541.685181 
	C3729.531250,1541.694702 3729.644531,1541.800781 3729.647949,1549.209839 
	C3729.678467,1613.169189 3729.679443,1677.128662 3729.644775,1741.088013 
	C3729.641113,1748.154053 3729.512695,1748.309204 3722.625244,1748.315430 
	C3673.323242,1748.360474 3624.021240,1748.354614 3574.719238,1748.315918 
	C3567.750488,1748.310425 3567.677490,1748.187256 3567.673584,1740.279907 
	C3567.649658,1691.977295 3567.661621,1643.674561 3567.661621,1595.371948 
	C3567.661621,1580.048340 3567.693115,1564.724731 3567.649414,1549.401245 
	C3567.625732,1541.166626 3567.310547,1541.636353 3575.029053,1541.656738 
	C3590.352783,1541.697388 3605.676270,1541.670166 3622.000000,1541.670898 
z"/>
<path id="ss" class="lim" fill="#FBFBFB" opacity="0" stroke="none" 
	d="
M3406.000000,1973.681274 
	C3386.336914,1973.681152 3367.671631,1973.520264 3349.012207,1973.784668 
	C3343.791016,1973.858521 3342.189209,1972.215576 3342.218994,1966.991333 
	C3342.415527,1932.332397 3342.286377,1897.671753 3342.351074,1863.011841 
	C3342.363281,1856.401978 3342.543701,1856.332031 3351.009033,1856.329346 
	C3414.330322,1856.308838 3477.651367,1856.318481 3540.972656,1856.319214 
	C3542.305664,1856.319214 3543.643799,1856.403076 3544.970703,1856.314453 
	C3548.359375,1856.088135 3549.932861,1857.588257 3549.687500,1861.004150 
	C3549.616211,1861.998413 3549.688965,1863.002930 3549.688965,1864.002686 
	C3549.689941,1897.996094 3549.716553,1931.989624 3549.668457,1965.983032 
	C3549.657715,1973.531250 3549.535889,1973.654053 3541.974121,1973.660889 
	C3496.982666,1973.701782 3451.991455,1973.681152 3406.000000,1973.681274 
z"/>
<path id="tt" class="lim" fill="#FCFCFC" opacity="0" stroke="none" 
	d="
M3228.000000,1856.325806 
	C3258.329346,1856.325928 3287.658936,1856.298340 3316.988281,1856.346191 
	C3324.148438,1856.357910 3324.310791,1856.471558 3324.322510,1863.256348 
	C3324.381348,1897.918457 3324.242676,1932.581055 3324.459473,1967.241821 
	C3324.493652,1972.698364 3322.493164,1973.781128 3317.499756,1973.769897 
	C3253.175293,1973.624146 3188.850342,1973.625366 3124.525879,1973.765869 
	C3119.558838,1973.776733 3117.512939,1972.731201 3117.548096,1967.249878 
	C3117.767822,1932.589233 3117.627930,1897.926514 3117.686523,1863.264404 
	C3117.697998,1856.471436 3117.858887,1856.354248 3125.013672,1856.344971 
	C3159.009033,1856.300659 3193.004639,1856.325562 3228.000000,1856.325806 
z"/>
<path id="uu" class="lim" fill="#FDFDFD" opacity="0" stroke="none" 
	d="
M2622.331055,831.868469 
	C2622.331787,800.229187 2622.304443,769.569824 2622.354004,738.910583 
	C2622.365479,731.851074 2622.486328,731.695374 2629.379639,731.691040 
	C2693.697754,731.651123 2758.015625,731.652893 2822.333740,731.692078 
	C2829.554688,731.696472 2829.648193,731.838135 2829.657471,739.650574 
	C2829.697021,772.975952 2829.678467,806.301270 2829.676758,839.626648 
	C2829.676270,848.158447 2830.904541,848.354126 2821.091309,848.348999 
	C2768.770508,848.321899 2716.449707,848.336365 2664.128906,848.336426 
	C2652.465088,848.336426 2640.797119,848.159973 2629.139160,848.419678 
	C2624.214111,848.529419 2621.510742,847.453125 2622.265625,841.836731 
	C2622.661621,838.890930 2622.332764,835.847656 2622.331055,831.868469 
z"/>
</svg>