<svg version="1.1" id="Layer_1" xmlns="http://www.w3.org/2000/svg" xmlnsXlink="http://www.w3.org/1999/xlink" x="0px" y="0px"
	 height="100%" viewBox="0 0 4410 3510" enable-background="new 0 0 4410 3510" xmlSpace="preserve">
<path id="b" class="lim" fill="#FDFDFD" opacity="0" stroke="none" 
	d="
M604.000183,866.334717 
	C832.320496,866.334717 1059.640747,866.321289 1286.960938,866.366028 
	C1301.674438,866.368896 1299.638306,864.290955 1299.641479,879.012939 
	C1299.686646,1089.667480 1299.686646,1300.321899 1299.641479,1510.976440 
	C1299.638306,1525.689575 1301.690308,1523.641235 1286.976318,1523.642822 
	C926.330444,1523.681641 565.684631,1523.681885 205.038757,1523.641602 
	C190.266495,1523.639893 192.369095,1525.705566 192.365814,1511.002319 
	C192.318787,1300.347778 192.319382,1089.693237 192.364426,879.038757 
	C192.367584,864.314880 190.323944,866.372253 205.023697,866.366272 
	C337.682495,866.312439 470.341309,866.334717 604.000183,866.334717 
z"/>
<path id="c" class="lim" fill="#FEFEFE" opacity="0" stroke="none" 
	d="
M3940.000000,191.664810 
	C4031.299561,191.664825 4121.599121,191.664841 4211.898438,191.664871 
	C4213.897949,191.664871 4215.934082,191.911377 4217.889648,191.618042 
	C4223.348633,190.799210 4225.000488,193.312607 4224.376953,198.341904 
	C4224.132812,200.310867 4224.336914,202.335449 4224.336914,204.334702 
	C4224.336914,339.617371 4224.336914,474.900024 4224.336914,610.182678 
	C4224.336914,612.515137 4224.106445,614.874817 4224.380859,617.174561 
	C4225.022461,622.558594 4222.617188,624.368347 4217.523438,623.705200 
	C4215.557617,623.449341 4213.530273,623.663086 4211.531250,623.663086 
	C4071.916748,623.663147 3932.302490,623.662048 3792.687988,623.664612 
	C3774.428711,623.664917 3774.344238,623.756409 3774.343750,642.172302 
	C3774.342773,706.814758 3774.343262,771.457214 3774.343018,836.099670 
	C3774.343018,838.432129 3774.183105,840.777344 3774.372803,843.094116 
	C3774.674072,846.773865 3773.570557,848.812256 3769.450684,848.364868 
	C3767.475098,848.150330 3765.456299,848.331787 3763.457031,848.331848 
	C3701.813477,848.332092 3640.169922,848.332153 3578.526367,848.331787 
	C3576.193848,848.331787 3573.855957,848.225342 3571.530029,848.349182 
	C3568.393799,848.516235 3567.502930,846.881653 3567.649414,844.085510 
	C3567.753906,842.091858 3567.664307,840.088135 3567.664307,838.088867 
	C3567.664062,626.168274 3567.653320,414.247650 3567.690918,202.327042 
	C3567.693115,189.991028 3565.972168,191.696289 3578.135010,191.691788 
	C3698.423340,191.647217 3818.711670,191.664810 3940.000000,191.664810 
z"/>
<path id="d" class="lim" fill="#FDFDFD" opacity="0" stroke="none" 
	d="
M2480.001465,1973.668213 
	C2468.671875,1973.667480 2458.338379,1973.510498 2448.013428,1973.740479 
	C2443.673584,1973.837158 2441.863281,1972.320679 2442.292725,1967.981812 
	C2442.488770,1966.001953 2442.322998,1963.986328 2442.322998,1961.986938 
	C2442.322998,1825.696167 2442.322998,1689.405396 2442.323242,1553.114624 
	C2442.323242,1551.448486 2442.547363,1549.746704 2442.286621,1548.122681 
	C2441.376465,1542.457031 2444.311279,1541.154053 2449.175537,1541.638550 
	C2451.155518,1541.835693 2453.171143,1541.670410 2455.170654,1541.670410 
	C2665.771484,1541.670410 2876.372559,1541.656250 3086.973389,1541.700073 
	C3102.023926,1541.703125 3099.626221,1539.806030 3099.633301,1554.269165 
	C3099.700684,1689.893433 3099.673096,1825.517822 3099.673096,1961.142090 
	C3099.673096,1963.141479 3099.455078,1965.169067 3099.711670,1967.134888 
	C3100.425293,1972.604614 3097.797119,1974.227783 3092.805908,1973.708496 
	C3090.498291,1973.468506 3088.144775,1973.668213 3085.812256,1973.668213 
	C2884.208496,1973.668213 2682.604736,1973.668213 2480.001465,1973.668213 
z"/>
<path id="e" class="lim" fill="#FDFDFD" opacity="0" stroke="none" 
	d="
M1542.333130,1829.999756 
	C1542.333252,1737.696167 1542.333252,1646.392578 1542.333618,1555.088989 
	C1542.333618,1552.756470 1542.622925,1550.381348 1542.283203,1548.099731 
	C1541.433472,1542.392456 1544.369385,1541.134155 1549.213257,1541.638550 
	C1550.861694,1541.810181 1552.542725,1541.669678 1554.208862,1541.669678 
	C1765.140137,1541.670166 1976.071411,1541.670166 2187.002686,1541.670044 
	C2199.668945,1541.670044 2199.672852,1541.669189 2199.672852,1554.284302 
	C2199.674072,1689.906738 2199.673828,1825.529297 2199.673828,1961.151733 
	C2199.673828,1963.151123 2199.456055,1965.178467 2199.711914,1967.144409 
	C2200.427002,1972.637817 2197.745361,1974.230591 2192.781738,1973.699463 
	C2190.805176,1973.488037 2188.786621,1973.667969 2186.787354,1973.667969 
	C1975.856079,1973.668213 1764.924805,1973.668091 1553.993530,1973.668213 
	C1552.993896,1973.668213 1551.994019,1973.659058 1550.994507,1973.669800 
	C1541.799194,1973.768677 1542.319458,1973.947998 1542.323608,1964.956421 
	C1542.344482,1920.304199 1542.333130,1875.652100 1542.333130,1829.999756 
z"/>
<path id="f" class="lim" fill="#FDFDFD" opacity="0" stroke="none" 
	d="
M995.999817,1973.668213 
	C881.368652,1973.668213 767.737488,1973.686523 654.106384,1973.643921 
	C640.658264,1973.638916 642.350159,1975.335693 642.346436,1962.083740 
	C642.308472,1825.792969 642.323242,1689.502319 642.323425,1553.211548 
	C642.323425,1551.545410 642.540955,1549.845703 642.287476,1548.219238 
	C641.428711,1542.709839 644.080994,1541.077515 649.078918,1541.641968 
	C650.724060,1541.827759 652.407959,1541.670410 654.074097,1541.670410 
	C865.341370,1541.670410 1076.608643,1541.661743 1287.875854,1541.690186 
	C1301.676636,1541.692017 1299.637329,1540.243286 1299.642090,1553.172363 
	C1299.691895,1689.463135 1299.672729,1825.753784 1299.672729,1962.044556 
	C1299.672729,1962.710938 1299.673096,1963.377441 1299.672485,1964.043823 
	C1299.663818,1974.559937 1300.437622,1973.663330 1289.908203,1973.664062 
	C1192.272095,1973.671143 1094.635986,1973.668213 995.999817,1973.668213 
z"/>
<path id="g" class="lim" fill="#FEFEFE" opacity="0" stroke="none" 
	d="
M352.000183,1541.672485 
	C439.314117,1541.672363 525.628052,1541.672241 611.941956,1541.672241 
	C613.941528,1541.672241 615.980774,1541.927124 617.933105,1541.623169 
	C623.491577,1540.757690 624.949768,1543.452515 624.373779,1548.392456 
	C624.143738,1550.365112 624.338135,1552.387207 624.338135,1554.386719 
	C624.338318,1765.005981 624.338440,1975.625366 624.338013,2186.244629 
	C624.337952,2198.330811 624.335754,2198.327881 612.314453,2198.327881 
	C476.011780,2198.327148 339.709137,2198.338135 203.406464,2198.311035 
	C190.444260,2198.308350 192.364456,2199.597168 192.362228,2187.115479 
	C192.324646,1975.829712 192.335358,1764.543945 192.335419,1553.258179 
	C192.335419,1551.925171 192.316528,1550.591675 192.339142,1549.259033 
	C192.465561,1541.811646 192.468933,1541.695312 200.034500,1541.689941 
	C250.356354,1541.654053 300.678253,1541.671997 352.000183,1541.672485 
z"/>
<path id="h" class="lim" fill="#FDFDFD" opacity="0" stroke="none" 
	d="
M3792.333252,1853.999756 
	C3792.333252,1753.005615 3792.310791,1653.011475 3792.361572,1553.017334 
	C3792.367920,1540.497437 3790.408691,1541.687134 3803.275635,1541.684937 
	C3940.267578,1541.661987 4077.259521,1541.670776 4214.251465,1541.670898 
	C4216.251465,1541.670898 4218.256348,1541.766968 4220.249512,1541.651001 
	C4223.192871,1541.479736 4224.503906,1542.717773 4224.350098,1545.699585 
	C4224.229492,1548.026245 4224.338379,1550.364624 4224.338379,1552.697754 
	C4224.338867,1689.356445 4224.348145,1826.015015 4224.323730,1962.673706 
	C4224.321777,1975.580444 4225.535156,1973.635986 4213.040527,1973.640015 
	C4076.715088,1973.684204 3940.389893,1973.667725 3804.064453,1973.667725 
	C3803.397705,1973.667725 3802.731201,1973.668457 3802.064453,1973.666992 
	C3791.549072,1973.644043 3792.336670,1974.499268 3792.335449,1963.993408 
	C3792.331055,1927.662231 3792.333496,1891.331055 3792.333252,1853.999756 
z"/>
<path id="i" class="lim" fill="#FDFDFD" opacity="0" stroke="none" 
	d="
M3274.000000,1973.667847 
	C3225.001953,1973.667847 3177.004150,1973.667969 3129.006104,1973.667236 
	C3126.672852,1973.667236 3124.335693,1973.574829 3122.007324,1973.678589 
	C3119.167236,1973.805176 3117.611084,1972.733887 3117.676025,1969.718506 
	C3117.726318,1967.386597 3117.666016,1965.052368 3117.666016,1962.719238 
	C3117.664795,1825.724976 3117.665039,1688.730713 3117.665283,1551.736450 
	C3117.665283,1549.736572 3117.765625,1547.731079 3117.650879,1545.738037 
	C3117.481201,1542.791138 3118.729004,1541.488647 3121.706299,1541.645874 
	C3124.033203,1541.768799 3126.371582,1541.669800 3128.704834,1541.669800 
	C3265.032471,1541.670166 3401.359863,1541.670288 3537.687500,1541.671265 
	C3549.672607,1541.671387 3549.676514,1541.674438 3549.676514,1553.961426 
	C3549.677490,1689.622437 3549.677002,1825.283325 3549.677246,1960.944336 
	C3549.677246,1961.944336 3549.677979,1962.944214 3549.677002,1963.944214 
	C3549.666504,1974.465820 3550.450439,1973.667725 3539.988770,1973.667725 
	C3451.659180,1973.668091 3363.329590,1973.667847 3274.000000,1973.667847 
z"/>
<path id="j" class="lim" fill="#FDFDFD" opacity="0" stroke="none" 
	d="
M813.999817,623.665222 
	C760.002258,623.665222 707.004700,623.665527 654.007202,623.664001 
	C651.340698,623.663940 648.674255,623.646729 646.007751,623.638428 
	C643.565979,623.630859 642.368164,622.385010 642.354858,619.965332 
	C642.341980,617.632141 642.325317,615.299011 642.325256,612.965820 
	C642.323730,475.972260 642.323792,338.978699 642.323853,201.985138 
	C642.323853,200.318558 642.458008,198.639420 642.300781,196.987930 
	C641.945007,193.250519 643.281738,191.331192 647.294922,191.636078 
	C649.614624,191.812317 651.958923,191.662888 654.292114,191.662872 
	C790.619080,191.662094 926.945984,191.643570 1063.272949,191.690552 
	C1076.198975,191.695007 1074.294067,189.877289 1074.298828,202.723434 
	C1074.349731,339.383667 1074.338745,476.043915 1074.317627,612.704163 
	C1074.315674,625.611572 1075.448242,623.626221 1062.988525,623.634827 
	C980.325623,623.691772 897.662781,623.664856 813.999817,623.665222 
z"/>
<path id="k" class="lim" fill="#FDFDFD" opacity="0" stroke="none" 
	d="
M342.000183,191.662643 
	C432.662140,191.662643 522.324097,191.662643 611.986023,191.662720 
	C614.319214,191.662720 616.678345,191.885773 618.980103,191.617188 
	C623.600403,191.078049 624.793945,193.364395 624.367432,197.429382 
	C624.194458,199.077789 624.339783,200.759552 624.339783,202.426132 
	C624.339783,339.085571 624.351868,475.745026 624.320435,612.404480 
	C624.317383,625.590210 625.660461,623.633606 613.304932,623.637634 
	C476.978790,623.681641 340.652618,623.681458 204.326477,623.640320 
	C190.482300,623.636169 192.365463,625.388550 192.360794,611.271606 
	C192.315857,475.612091 192.333847,339.952606 192.333862,204.293091 
	C192.333862,202.959824 192.333740,201.626572 192.334778,200.293304 
	C192.341248,192.000519 191.005127,191.637589 201.007935,191.645569 
	C247.671982,191.682846 294.336090,191.662430 342.000183,191.662643 
z"/>
<path id="l" class="lim" fill="#FDFDFD" opacity="0" stroke="none" 
	d="
M3274.000000,191.662537 
	C3361.997070,191.662537 3448.993896,191.662537 3535.990967,191.662537 
	C3537.324219,191.662537 3538.657471,191.662827 3539.990723,191.662567 
	C3551.094238,191.660294 3549.661865,191.217621 3549.663330,201.281540 
	C3549.682617,338.943420 3549.676025,476.605316 3549.675537,614.267212 
	C3549.675537,615.600525 3549.579346,616.941528 3549.688721,618.265625 
	C3549.990967,621.924805 3548.758545,624.011475 3544.692383,623.686157 
	C3542.705322,623.527161 3540.694824,623.665039 3538.694824,623.665039 
	C3402.032959,623.665222 3265.370850,623.665100 3128.708984,623.664551 
	C3126.375732,623.664551 3124.038086,623.565918 3121.710449,623.678589 
	C3118.624756,623.827881 3117.580078,622.258545 3117.668701,619.421326 
	C3117.741455,617.090576 3117.665771,614.755371 3117.665771,612.422180 
	C3117.664795,475.760254 3117.648682,339.098328 3117.692383,202.436417 
	C3117.696289,190.013962 3115.949219,191.706009 3128.004883,191.689362 
	C3176.336670,191.622650 3224.668213,191.662247 3274.000000,191.662537 
z"/>
<path id="m" class="lim" fill="#FDFDFD" opacity="0" stroke="none" 
	d="
M2710.000000,191.662643 
	C2835.658447,191.662643 2960.317139,191.662643 3084.975586,191.662643 
	C3086.642090,191.662643 3088.308594,191.663956 3089.975098,191.662460 
	C3101.139648,191.652420 3099.657959,191.274918 3099.659180,201.268906 
	C3099.677979,338.593262 3099.671631,475.917603 3099.671631,613.241943 
	C3099.671631,614.575195 3099.543945,615.922302 3099.689941,617.239197 
	C3100.190674,621.759033 3098.788818,624.322876 3093.689209,623.702026 
	C3091.718750,623.462158 3089.694336,623.665100 3087.694580,623.665100 
	C2951.370117,623.665161 2815.045898,623.681763 2678.721436,623.637024 
	C2666.350830,623.632935 2667.684814,625.583069 2667.681641,612.420044 
	C2667.649902,475.762329 2667.645264,339.104584 2667.690186,202.446869 
	C2667.694336,189.996185 2665.976318,191.805649 2678.002197,191.684265 
	C2688.333984,191.579987 2698.667236,191.662643 2710.000000,191.662643 
z"/>
<path id="n" class="lim" fill="#FDFDFD" opacity="0" stroke="none" 
	d="
M2264.000000,623.665161 
	C2177.337891,623.665161 2091.675781,623.665100 2006.013672,623.665100 
	C2004.347046,623.665100 2002.680420,623.651855 2001.013916,623.666870 
	C1991.941284,623.748596 1992.323120,624.069458 1992.324097,614.958679 
	C1992.339233,476.632690 1992.338013,338.306671 1992.326660,199.980682 
	C1992.325928,190.772202 1991.884521,191.666290 2002.320435,191.665802 
	C2116.314453,191.660339 2230.308350,191.662521 2344.302246,191.662643 
	C2368.301025,191.662674 2392.299805,191.671600 2416.298584,191.657913 
	C2424.978760,191.652969 2424.343506,191.097351 2424.342529,199.738937 
	C2424.336670,255.069336 2424.339600,310.399719 2424.339600,365.730133 
	C2424.339355,448.059113 2424.354492,530.388062 2424.323975,612.717041 
	C2424.319336,625.637329 2425.459717,623.617737 2412.992432,623.635803 
	C2363.661621,623.707397 2314.330811,623.665161 2264.000000,623.665161 
z"/>
<path id="o" class="lim" fill="#FDFDFD" opacity="0" stroke="none" 
	d="
M1542.333618,493.999817 
	C1542.333618,396.671173 1542.333618,300.342560 1542.333740,204.013931 
	C1542.333740,201.680710 1542.489868,199.334991 1542.301758,197.017120 
	C1542.000610,193.306625 1543.233765,191.331085 1547.274414,191.637482 
	C1549.594116,191.813385 1551.938354,191.662994 1554.271606,191.662994 
	C1690.598267,191.662643 1826.924927,191.643600 1963.251587,191.693665 
	C1976.135986,191.698395 1974.309692,189.811890 1974.314331,202.696487 
	C1974.364258,339.356476 1974.355103,476.016449 1974.329590,612.676453 
	C1974.327148,625.642578 1975.496582,623.631653 1963.041992,623.635864 
	C1826.715332,623.682373 1690.388672,623.665161 1554.062012,623.665283 
	C1553.395386,623.665283 1552.728638,623.666077 1552.062012,623.665466 
	C1541.512695,623.655457 1542.338257,624.465088 1542.336914,613.993713 
	C1542.331665,574.329102 1542.333984,534.664490 1542.333618,493.999817 
z"/>
<path id="p" class="lim" fill="#FDFDFD" opacity="0" stroke="none" 
	d="
M1524.344971,613.733459 
	C1524.011719,623.578003 1524.011719,623.652954 1516.020020,623.653809 
	C1377.688721,623.668884 1239.357300,623.668884 1101.026001,623.652161 
	C1092.425049,623.651123 1092.347900,623.574219 1092.346924,614.949036 
	C1092.330566,476.617676 1092.338989,338.286316 1092.327026,199.954941 
	C1092.326294,190.677612 1091.947021,191.668182 1102.340698,191.667435 
	C1222.338989,191.658722 1342.337280,191.662323 1462.335571,191.662582 
	C1480.335327,191.662628 1498.335083,191.676758 1516.334839,191.656052 
	C1525.054565,191.646027 1524.347900,191.164108 1524.347412,199.767975 
	C1524.343872,259.433777 1524.345703,319.099609 1524.345581,378.765411 
	C1524.345581,456.764313 1524.345337,534.763245 1524.344971,613.733459 
z"/>
<path id="q" class="lim" fill="#FCFCFC" opacity="0" stroke="none" 
	d="
M2442.318115,513.999878 
	C2442.318115,410.383362 2442.318115,307.766815 2442.318115,205.150299 
	C2442.318115,202.818100 2442.600830,200.444382 2442.264160,198.161880 
	C2441.438721,192.564331 2444.188721,191.570160 2449.110107,191.579117 
	C2513.744873,191.696747 2578.380127,191.702667 2643.014893,191.563110 
	C2648.138428,191.552063 2650.488525,192.933411 2649.713867,198.297241 
	C2649.431152,200.255356 2649.670166,202.288681 2649.670166,204.287704 
	C2649.670654,339.888123 2649.670410,475.488525 2649.670410,611.088928 
	C2649.670410,612.754761 2649.696777,614.421143 2649.665527,616.086426 
	C2649.525391,623.527039 2649.519531,623.645874 2641.883301,623.649841 
	C2577.914551,623.683105 2513.945801,623.683899 2449.977051,623.650085 
	C2442.470215,623.646118 2442.351562,623.521667 2442.340820,615.950073 
	C2442.292969,582.300049 2442.318848,548.649963 2442.318115,513.999878 
z"/>
<path id="r" class="lim" fill="#FEFEFE" opacity="0" stroke="none" 
	d="
M1524.344116,910.000305 
	C1524.344116,1035.950195 1524.344116,1160.900269 1524.343994,1285.850220 
	C1524.343994,1287.849487 1524.105591,1289.883057 1524.388794,1291.841309 
	C1525.165527,1297.212891 1522.810669,1298.445312 1517.711304,1298.432861 
	C1453.404053,1298.275635 1389.096436,1298.342163 1324.788818,1298.309448 
	C1317.758789,1298.305786 1317.683228,1298.184692 1317.678833,1290.335205 
	C1317.653320,1244.686768 1317.666382,1199.038452 1317.666382,1153.390015 
	C1317.666382,1061.426758 1317.650757,969.463623 1317.683960,877.500427 
	C1317.688599,864.448730 1316.385986,866.378784 1328.798706,866.365906 
	C1390.440674,866.302063 1452.082642,866.336426 1513.724609,866.336304 
	C1515.390625,866.336304 1517.075684,866.499756 1518.718994,866.306763 
	C1523.130981,865.788452 1524.468628,867.797302 1524.406494,872.016113 
	C1524.224487,884.341797 1524.343262,896.671936 1524.344116,910.000305 
z"/>
<path id="s" class="lim" fill="#FEFEFE" opacity="0" stroke="none" 
	d="
M3567.663330,1665.999756 
	C3567.663574,1626.681030 3567.660156,1588.362427 3567.666992,1550.043701 
	C3567.668457,1541.302246 3566.702881,1541.660522 3575.392090,1541.662476 
	C3639.034424,1541.677246 3702.676758,1541.676270 3766.319092,1541.665039 
	C3774.997314,1541.663452 3774.345947,1541.112183 3774.345703,1549.752930 
	C3774.342285,1688.033447 3774.343262,1826.313843 3774.342041,1964.594360 
	C3774.342041,1966.260254 3774.280273,1967.927612 3774.327637,1969.591919 
	C3774.411133,1972.524902 3773.041260,1973.824707 3770.106689,1973.674194 
	C3768.112793,1973.571899 3766.109375,1973.665283 3764.110107,1973.665283 
	C3702.133789,1973.666016 3640.157471,1973.665771 3578.181152,1973.665405 
	C3576.848389,1973.665405 3575.486084,1973.481812 3574.187744,1973.692749 
	C3568.641357,1974.594116 3567.104248,1971.846802 3567.629150,1966.881470 
	C3567.838135,1964.904297 3567.663574,1962.886719 3567.663574,1960.887451 
	C3567.663574,1862.924927 3567.663330,1764.962402 3567.663330,1665.999756 
z"/>
<path id="t" class="lim" fill="#FEFEFE" opacity="0" stroke="none" 
	d="
M1328.100952,1541.671021 
	C1390.073608,1541.671875 1451.052368,1541.671997 1512.031250,1541.672119 
	C1514.030518,1541.672119 1516.072388,1541.935913 1518.021118,1541.622192 
	C1523.729126,1540.703613 1524.915039,1543.683105 1524.366211,1548.474243 
	C1524.215576,1549.789917 1524.344116,1551.137451 1524.344116,1552.470337 
	C1524.344116,1689.089600 1524.357544,1825.708862 1524.322998,1962.328125 
	C1524.319580,1975.578491 1525.716187,1973.625610 1513.406860,1973.638062 
	C1451.761597,1973.699829 1390.116333,1973.666260 1328.471069,1973.665771 
	C1326.471802,1973.665649 1324.462891,1973.535034 1322.475220,1973.685913 
	C1319.146973,1973.938599 1317.470581,1972.689697 1317.655273,1969.184448 
	C1317.777954,1966.858521 1317.666748,1964.520630 1317.666748,1962.188110 
	C1317.666138,1825.568848 1317.666382,1688.949585 1317.666382,1552.330322 
	C1317.666382,1551.997070 1317.665771,1551.663940 1317.666626,1551.330688 
	C1317.689941,1541.816895 1317.689819,1541.816895 1328.100952,1541.671021 
z"/>
<path id="u" class="lim" fill="#FEFEFE" opacity="0" stroke="none" 
	d="
M3228.000000,1298.330078 
	C3193.346924,1298.329712 3159.693604,1298.335205 3126.040527,1298.325073 
	C3117.328369,1298.322388 3117.661133,1299.305664 3117.661621,1290.587402 
	C3117.668945,1151.976196 3117.670166,1013.365112 3117.659180,874.753967 
	C3117.658447,865.200806 3117.684082,866.335876 3126.547119,866.336243 
	C3189.521973,866.338623 3252.496826,866.338623 3315.471680,866.334351 
	C3324.271484,866.333740 3324.353271,865.167419 3324.352539,874.761719 
	C3324.340088,1013.372864 3324.341797,1151.984009 3324.348633,1290.595215 
	C3324.349121,1299.320923 3324.670654,1298.324219 3315.965332,1298.326782 
	C3286.976807,1298.335571 3257.988525,1298.330078 3228.000000,1298.330078 
z"/>
<path id="v" class="lim" fill="#FEFEFE" opacity="0" stroke="none" 
	d="
M3800.334961,848.332153 
	C3792.417480,847.520813 3792.348145,847.520874 3792.344482,840.085022 
	C3792.322021,795.432312 3792.334229,750.779602 3792.334717,706.126892 
	C3792.334961,687.466064 3792.310303,668.805176 3792.345947,650.144409 
	C3792.362061,641.740173 3792.416260,641.739502 3801.136230,641.663818 
	C3802.135986,641.655090 3803.135498,641.662720 3804.135254,641.662720 
	C3940.426025,641.662659 4076.716553,641.662476 4213.007324,641.662903 
	C4224.334961,641.662964 4224.336914,641.664795 4224.337402,653.441101 
	C4224.337891,714.755249 4224.337402,776.069397 4224.336426,837.383545 
	C4224.336426,839.716125 4224.224609,842.054199 4224.347656,844.380005 
	C4224.509277,847.437683 4223.034180,848.478149 4220.166504,848.349976 
	C4217.505859,848.231079 4214.835938,848.332336 4212.169922,848.332336 
	C4075.212891,848.332703 3938.255859,848.332581 3800.334961,848.332153 
z"/>
<path id="w" class="lim" fill="#FEFEFE" opacity="0" stroke="none" 
	d="
M4224.335938,2120.000000 
	C4224.335449,2144.310547 4224.317871,2167.621338 4224.345703,2190.931885 
	C4224.354980,2198.755371 4224.788086,2198.343994 4216.633301,2198.341064 
	C4152.695801,2198.318115 4088.757812,2198.339600 4024.820068,2198.308105 
	C4017.816895,2198.304688 4017.689697,2198.190186 4017.686035,2191.376953 
	C4017.652344,2127.106201 4017.651855,2062.835449 4017.685303,1998.564819 
	C4017.688721,1991.800171 4017.817139,1991.687012 4024.870605,1991.683594 
	C4088.808350,1991.653442 4152.746094,1991.667114 4216.683594,1991.664062 
	C4225.151855,1991.663696 4224.334961,1991.094971 4224.335449,2000.115845 
	C4224.337402,2039.743896 4224.335938,2079.372070 4224.335938,2120.000000 
z"/>
</svg>