<svg id="eWSbf0TCvqj1" xmlns="http://www.w3.org/2000/svg" xmlns:xlink="http://www.w3.org/1999/xlink" viewBox="0 0 1920 1080" shape-rendering="geometricPrecision" text-rendering="geometricPrecision">
    <rect name="espacio1" id="Fondo1" width="1920" height="631.299026" rx="0" ry="0" transform="translate(0 326.859684)" fill="#dadada" stroke="#000" stroke-width="2"/>
    <rect name="espacio1" id="Fondo2" width="1920" height="1080" rx="0" ry="0" fill="#dadada" stroke-width="0"/>
    <rect name="espacio1" id="PerYBur" width="257.680383" height="614.634146" rx="0" ry="0" transform="matrix(1.36 0 0 0.07 0 915.13432)" fill="#8e8c8c" stroke="#000" stroke-width="2"/>
    <rect name="espacio1" id="Cinepolis" width="257.680383" height="614.634146" rx="0" ry="0" transform="matrix(1 0 0 0.41 0 620.10993)" fill="#8e8c8c" stroke="#000" stroke-width="2"/>
    <rect name="espacio1" id="Recorcholis" width="257.680383" height="614.634146" rx="0" ry="0" transform="matrix(1 0 0 0.48 0 326.597734)" fill="#8e8c8c" stroke="#000" stroke-width="2"/>
    <rect name="espacio1" id="SushiExp" width="213.538897" height="52.390073" rx="0" ry="0" transform="translate(1706.461104 326.597734)" fill="#8e8c8c" stroke="#000" stroke-width="2"/>
    <rect name="espacio1" id="CR10" width="213.538897" height="52.390073" rx="0" ry="0" transform="translate(1706.461104 378.987807)" fill="#8e8c8c" stroke="#000" stroke-width="2"/>
    <rect name="espacio1" id="Subway" width="213.538897" height="52.390073" rx="0" ry="0" transform="matrix(1 0 0 1.04 1706.461104 431.37788)" fill="#8e8c8c" stroke="#000" stroke-width="2"/>
    <rect name="espacio1" id="AsiaTown" width="213.538897" height="52.390073" rx="0" ry="0" transform="matrix(1 0 0 1.04 1706.461104 485.863555)" fill="#8e8c8c" stroke="#000" stroke-width="2"/>
    <rect name="espacio1" id="Freshon" width="213.538897" height="52.390073" rx="0" ry="0" transform="matrix(1 0 0 1.03 1706.461104 540)" fill="#8e8c8c" stroke="#000" stroke-width="2"/>
    <rect name="espacio1" id="KFC" width="213.538897" height="52.390073" rx="0" ry="0" transform="matrix(1 0 0 1.03 1706.461103 593.129042)" fill="#8e8c8c" stroke="#000" stroke-width="2"/>
    <rect name="espacio1" id="BurgerKing" width="213.538897" height="52.390073" rx="0" ry="0" transform="matrix(1 0 0 0.9 1706.461104 647.090817)" fill="#8e8c8c" stroke="#000" stroke-width="2"/>
    <rect name="espacio1" id="Dominos" width="213.538897" height="52.390073" rx="0" ry="0" transform="matrix(1 0 0 0.73 1706.461104 694.241882)" fill="#8e8c8c" stroke="#000" stroke-width="2"/>
    <rect name="espacio1" id="SunHing" width="213.538897" height="52.390073" rx="0" ry="0" transform="matrix(1 0 0 0.9 1706.461104 732.486635)" fill="#8e8c8c" stroke="#000" stroke-width="2"/>
    <rect name="espacio1" id="AsadeBee" width="213.538897" height="52.390073" rx="0" ry="0" transform="matrix(1 0 0 0.9 1706.461104 779.6377)" fill="#8e8c8c" stroke="#000" stroke-width="2"/>
    <rect name="espacio1" id="SushiRoll" width="213.538897" height="52.390073" rx="0" ry="0" transform="matrix(1 0 0 0.9 1706.461103 824.958865)" fill="#8e8c8c" stroke="#000" stroke-width="2"/>
    <rect name="espacio1" id="CR11A" width="213.538897" height="52.390073" rx="0" ry="0" transform="matrix(1 0 0 0.86 1706.461104 872.10993)" fill="#8e8c8c" stroke="#000" stroke-width="2"/>
    <rect name="espacio1" id="Jugueton" width="257.680383" height="614.634146" rx="0" ry="0" transform="matrix(.6 0 0 0.21 350.445321 830.101076)" fill="#8e8c8c" stroke="#000" stroke-width="2"/>
    <rect name="espacio1" id="Gamers" width="257.680383" height="614.634146" rx="0" ry="0" transform="matrix(.58 0 0 0.21 505.053551 830.101076)" fill="#8e8c8c" stroke="#000" stroke-width="2"/>
    <rect name="espacio1" id="LordCal" width="257.680383" height="614.634146" rx="0" ry="0" transform="matrix(.59 0 0 0.21 654.508173 830.101076)" fill="#8e8c8c" stroke="#000" stroke-width="2"/>
    <rect name="espacio1" id="SkinIn" width="257.680383" height="614.634146" rx="0" ry="0" transform="matrix(.64 0 0 0.21 806.539599 830.101076)" fill="#8e8c8c" stroke="#000" stroke-width="2"/>
    <rect name="espacio1" id="T05" width="257.680383" height="614.634146" rx="0" ry="0" transform="matrix(.6 0 0 0.21 971.455044 830.101076)" fill="#8e8c8c" stroke="#000" stroke-width="2"/>
    <rect name="espacio1" id="EnriqueBri" width="257.680383" height="614.634146" rx="0" ry="0" transform="matrix(.6 0 0 0.21 1127.552605 830.101076)" fill="#8e8c8c" stroke="#000" stroke-width="2"/>
    <rect name="espacio1" id="Fraiche" width="257.680383" height="614.634146" rx="0" ry="0" transform="matrix(.6 0 0 0.21 1282.160835 830.101076)" fill="#8e8c8c" stroke="#000" stroke-width="2"/>
    <rect name="espacio1" id="CexMex" width="257.680383" height="614.634146" rx="0" ry="0" transform="matrix(.64 0 0 0.21 1436.769065 830.101076)" fill="#8e8c8c" stroke="#000" stroke-width="2"/>
    <path name="espacio1" id="Terraza" d="M1920,917.165393h-315.977954v42.008853l315.97799,120.825753Q1919.999964,921.22754,1920,917.165393Z" transform="translate(0 0.000001)" fill="#8e8c8c" stroke="#000" stroke-width="2"/>
    <rect name="espacio1" id="Fondo3" width="1920" height="37.378917" rx="0" ry="0" transform="matrix(1 0 0 1.18 0 282.490612)" fill="#fff" stroke-width="0"/>
    <rect name="espacio1" id="Futbol" width="198.916777" height="279.46272" rx="0" ry="0" transform="translate(806.539598 0)" fill="#8e8c8c" stroke="#000" stroke-width="2"/>
    <path name="espacio1" id="Fondo4" d="M1920.000036,1082.210859l-315.97799-123.036612L0,959.174247L0,1080l1920.000036,2.210859Z" fill="#fff" stroke-width="3.84"/>
    <rect name="espacio1" id="SanitarioHom|1" width="319.523675" height="52.390073" rx="0" ry="0" transform="matrix(.37 0 0 1 1282.402544 327.907486)" fill="#8e8c8c" stroke="#000" stroke-width="2"/>
    <rect name="espacio1" id="SanitarioMuj1" width="319.523675" height="52.390073" rx="0" ry="0" transform="matrix(.37 0 0 1 1401.003028 327.907486)" fill="#8e8c8c" stroke="#000" stroke-width="2"/>
    <rect name="espacio1" id="Michoacana" width="102.439057" height="52.390073" rx="0" ry="0" transform="matrix(1 0 0 1.02 1601.684509 326.859684)" fill="#8e8c8c" stroke="#000" stroke-width="2"/>
    <rect name="espacio1" id="WingStop" width="154.60823" height="105.565996" rx="0" ry="0" transform="translate(1282.160835 378.594882)" fill="#8e8c8c" stroke="#000" stroke-width="2"/>
    <rect name="espacio1" id="SanitarioHom2" width="92.764938" height="51.735198" rx="0" ry="0" transform="matrix(.5 0 0 1 257.680383 327.711023)" fill="#8e8c8c" stroke="#000" stroke-width="2"/>
    <rect name="espacio1" id="SanitarioMuj2" width="92.764938" height="51.735198" rx="0" ry="0" transform="matrix(.5 0 0 1 305.345145 327.711023)" fill="#8e8c8c" stroke="#000" stroke-width="2"/>
    <rect name="espacio1" id="JustLove" width="46.382469" height="103.863319" rx="0" ry="0" transform="translate(304.062852 378.332932)" fill="#8e8c8c" stroke="#000" stroke-width="2"/>
    <rect name="espacio1" id="Extintor1" width="18.349142" height="6.171523" rx="0" ry="0" transform="matrix(1.5 0 0 5 276.53914 378.332932)" fill="#f60000" stroke="#000" stroke-width="0.5" stroke-linecap="square"/>
    <line name="espacio1" id="Salida1" x1="-38.652058" y1="0.130975" x2="38.652058" y2="-0.130975" transform="translate(390.379672 334.242061)" fill="none" stroke="#35cd12" stroke-width="15"/>
    <rect name="espacio1" id="Escaleras1" width="45.100176" height="80.442645" rx="0" ry="0" transform="matrix(1 0 0 1.3 1537.905561 409.190547)" fill="#dadada" stroke="#000" stroke-width="2"/>
    <line name="espacio1" id="Salida2" x1="0" y1="-21.512195" x2="0" y2="21.512195" transform="translate(6.261126 893.622125)" fill="none" stroke="#35cd12" stroke-width="15"/>
    <rect name="espacio1" id="Escaleras2" width="45.100176" height="80.442645" rx="0" ry="0" transform="matrix(1 0 0-1.03 375.112721 803.213233)" fill="#dadada" stroke="#000" stroke-width="2"/>
    <line name="espacio1" id="Linea1" x1="-22.550088" y1="0" x2="22.550088" y2="0" transform="translate(1560.455649 430.049367)" fill="none" stroke="#000" stroke-width="3"/>
    <line name="espacio1" id="Linea2" x1="-21.908941" y1="0" x2="21.908942" y2="0" transform="translate(1561.096796 440.760281)" fill="none" stroke="#000" stroke-width="3"/>
    <line name="espacio1" id="Linea3" x1="-22.550089" y1="0" x2="22.550089" y2="0" transform="translate(1560.455649 454.598437)" fill="none" stroke="#000" stroke-width="3"/>
    <line name="espacio1" id="Linea4" x1="-22.229516" y1="0" x2="22.229516" y2="0" transform="translate(1560.776223 467.965785)" fill="none" stroke="#000" stroke-width="3"/>
    <line name="espacio1" id="Linea5" x1="-22.229516" y1="0" x2="22.229516" y2="0" transform="translate(1560.776223 481.333131)" fill="none" stroke="#000" stroke-width="3"/>
    <line name="espacio1" id="Linea6" x1="-22.229516" y1="0" x2="22.229516" y2="0" transform="translate(1560.776223 494.700481)" fill="none" stroke="#000" stroke-width="3"/>
    <line name="espacio1" id="Linea7" x1="-22.550089" y1="0" x2="22.550089" y2="0" transform="translate(1560.455649 505.679665)" fill="none" stroke="#000" stroke-width="3"/>
    <line name="espacio1" id="Linea8" x1="-22.229516" y1="0" x2="22.229516" y2="0" transform="translate(1560.776223 416.855337)" fill="none" stroke="#000" stroke-width="3"/>
    <line name="espacio1" id="Linea9" x1="-22.870661" y1="0" x2="22.870661" y2="0" transform="matrix(1 0 0-1 397.983382 728.435218)" fill="none" stroke="#000" stroke-width="3"/>
    <line name="espacio1" id="Linea10" x1="-22.870661" y1="0" x2="22.870661" y2="0" transform="matrix(1 0 0-1 397.983382 737.194205)" fill="none" stroke="#000" stroke-width="3"/>
    <line name="espacio1" id="Linea11" x1="-23.511808" y1="0" x2="23.511807" y2="0" transform="matrix(1 0 0-1 397.342236 760.769736)" fill="none" stroke="#000" stroke-width="3"/>
    <line name="espacio1" id="Linea12" x1="-22.870661" y1="0" x2="22.870661" y2="0" transform="matrix(1 0 0-1 397.983382 770.896204)" fill="none" stroke="#000" stroke-width="3"/>
    <line name="espacio1" id="Linea13" x1="-22.870661" y1="0" x2="22.870661" y2="0" transform="matrix(1 0 0-1 397.983382 782.281932)" fill="none" stroke="#000" stroke-width="3"/>
    <line name="espacio1" id="Linea14" x1="-22.870661" y1="0" x2="22.870661" y2="0" transform="translate(397.983382 794.015857)" fill="none" stroke="#000" stroke-width="3"/>
    <line name="espacio1" id="Linea15" x1="-22.870661" y1="0" x2="22.870661" y2="0" transform="matrix(1 0 0-1 397.983382 750.043038)" fill="none" stroke="#000" stroke-width="3"/>
    <rect name="espacio1" id="Extintor2" width="27.523713" height="30.857615" rx="0" ry="0" transform="translate(257.680383 839.775412)" fill="#f60000" stroke="#000" stroke-width="0.5"/>
    <rect name="espacio1" id="Extintor3" width="27.523713" height="30.857615" rx="0" ry="0" transform="translate(1460.114908 647.090817)" fill="#f60000" stroke="#000" stroke-width="0.5"/>
    <rect name="espacio1" id="Extintor4" width="27.523713" height="30.857615" rx="0" ry="0" transform="translate(1005.456375 69.402705)" fill="#f60000" stroke="#000" stroke-width="0.5"/>
    <line name="espacio1" id="Salida3" x1="-41.228861" y1="0" x2="41.228861" y2="0" transform="translate(1560.455649 334.111086)" fill="none" stroke="#35cd12" stroke-width="15"/>
    <rect name="espacio1" id="Escaleras3" width="45.100176" height="80.442645" rx="0" ry="0" transform="matrix(1 0 0 1.3 1003.658983 121.078608)" fill="#dadada" stroke="#000" stroke-width="2"/>
    <line name="espacio1" id="Linea16" x1="-21.651392" y1="0" x2="21.651392" y2="0" transform="translate(1027.107767 139.73136)" fill="none" stroke="#000" stroke-width="3"/>
    <line name="espacio1" id="Linea17" x1="-21.651392" y1="0" x2="21.651392" y2="0" transform="translate(1027.107767 157.374073)" fill="none" stroke="#000" stroke-width="3"/>
    <line name="espacio1" id="Linea18" x1="-22.550088" y1="0" x2="22.550088" y2="0" transform="translate(1026.209071 173.366328)" fill="none" stroke="#000" stroke-width="3"/>
    <line name="espacio1" id="Linea19" x1="-22.550088" y1="0" x2="22.550088" y2="0" transform="translate(1026.209071 188.598028)" fill="none" stroke="#000" stroke-width="3"/>
    <line name="espacio1" id="Linea20" x1="-22.550088" y1="0" x2="22.550088" y2="0" transform="translate(1026.209071 201.371464)" fill="none" stroke="#000" stroke-width="3"/>
    <line name="espacio1" id="Linea21" x1="-22.550088" y1="0" x2="22.550088" y2="0" transform="translate(1026.209071 214.1449)" fill="none" stroke="#000" stroke-width="3"/>
    <line name="espacio1" id="Salida4" x1="-21.651392" y1="0" x2="21.651392" y2="0" transform="translate(1027.107767 7.1867)" fill="none" stroke="#35cd12" stroke-width="15"/>
</svg>
